<svg width="24" height="24" viewBox="0 0 24 24" fill="none" xmlns="http://www.w3.org/2000/svg">
<path d="M23.5861 19.8618H0.413812C0.185297 19.8618 0 19.6765 0 19.448V4.55151C0 4.32299 0.185297 4.1377 0.413812 4.1377H23.5862C23.8147 4.1377 24 4.32299 24 4.55151V19.448C24 19.6766 23.8147 19.8618 23.5861 19.8618Z" fill="#F5F5F5"/>
<path d="M24 5.3473H0V4.55151C0 4.32299 0.185297 4.1377 0.413812 4.1377H23.5862C23.8147 4.1377 24 4.32299 24 4.55151L24 5.3473Z" fill="#FF4B55"/>
<path d="M24 8.97607H0V10.1856H24V8.97607Z" fill="#FF4B55"/>
<path d="M24 6.55664H0V7.7662H24V6.55664Z" fill="#FF4B55"/>
<path d="M24 12.6046H0.413812C0.185297 12.6046 0 12.4193 0 12.1908V11.395H24V12.6046Z" fill="#FF4B55"/>
<path d="M24 16.2334H0V17.443H24V16.2334Z" fill="#FF4B55"/>
<path d="M23.5861 19.8619H0.413812C0.185297 19.8619 0 19.6766 0 19.4481V18.6523H24V19.4481C24 19.6767 23.8147 19.8619 23.5861 19.8619Z" fill="#FF4B55"/>
<path d="M24 13.8145H0V15.024H24V13.8145Z" fill="#FF4B55"/>
<path d="M10.7586 4.13818H0.413812C0.185297 4.13818 0 4.32343 0 4.55195V12.1911C0 12.4197 0.185297 12.605 0.413812 12.605H10.7586C10.9872 12.605 11.1724 12.4197 11.1724 12.1911V4.55195C11.1724 4.32343 10.9871 4.13818 10.7586 4.13818Z" fill="#41479B"/>
<path d="M1.16186 5.08771L1.25345 5.3624L1.543 5.3646C1.5805 5.36493 1.59601 5.41274 1.56587 5.43501L1.33295 5.60704L1.42033 5.88308C1.43167 5.9188 1.39094 5.94843 1.36042 5.92658L1.12487 5.75826L0.889328 5.92663C0.858813 5.94843 0.818172 5.91885 0.829422 5.88313L0.916797 5.60709L0.683876 5.43506C0.653736 5.41274 0.669251 5.36498 0.706751 5.36465L0.996297 5.36245L1.08789 5.08776C1.0997 5.05213 1.14995 5.05213 1.16186 5.08771Z" fill="#F5F5F5"/>
<path d="M1.16186 6.52469L1.25345 6.79938L1.543 6.80158C1.5805 6.80191 1.59601 6.84972 1.56587 6.87198L1.33295 7.04401L1.42033 7.32006C1.43167 7.35578 1.39094 7.3854 1.36042 7.36356L1.12487 7.19523L0.889328 7.36361C0.858813 7.3854 0.818172 7.35583 0.829422 7.32011L0.916797 7.04406L0.683876 6.87203C0.653736 6.84972 0.669251 6.80195 0.706751 6.80163L0.996297 6.79942L1.08789 6.52474C1.0997 6.48916 1.14995 6.48916 1.16186 6.52469Z" fill="#F5F5F5"/>
<path d="M1.16186 7.9617L1.25345 8.23639L1.543 8.23859C1.5805 8.23892 1.59601 8.28673 1.56587 8.309L1.33295 8.48103L1.42033 8.75708C1.43167 8.7928 1.39094 8.82243 1.36042 8.80058L1.12487 8.63225L0.889328 8.80063C0.858813 8.82243 0.818172 8.79285 0.829422 8.75713L0.916797 8.48108L0.683876 8.30905C0.653736 8.28673 0.669251 8.23897 0.706751 8.23864L0.996297 8.23644L1.08789 7.96175C1.0997 7.92617 1.14995 7.92617 1.16186 7.9617Z" fill="#F5F5F5"/>
<path d="M1.16186 9.39826L1.25345 9.67295L1.543 9.67515C1.5805 9.67548 1.59601 9.72329 1.56587 9.74556L1.33295 9.91759L1.42033 10.1936C1.43167 10.2294 1.39094 10.259 1.36042 10.2371L1.12487 10.0688L0.889328 10.2372C0.858813 10.259 0.818172 10.2294 0.829422 10.1937L0.916797 9.91763L0.683876 9.7456C0.653736 9.72329 0.669251 9.67553 0.706751 9.6752L0.996297 9.67299L1.08789 9.39831C1.0997 9.36268 1.14995 9.36268 1.16186 9.39826Z" fill="#F5F5F5"/>
<path d="M1.16186 10.8353L1.25345 11.11L1.543 11.1122C1.5805 11.1125 1.59601 11.1603 1.56587 11.1826L1.33295 11.3546L1.42033 11.6307C1.43167 11.6664 1.39094 11.696 1.36042 11.6742L1.12487 11.5059L0.889328 11.6742C0.858813 11.696 0.818172 11.6665 0.829422 11.6307L0.916797 11.3547L0.683876 11.1827C0.653736 11.1603 0.669251 11.1126 0.706751 11.1122L0.996297 11.11L1.08789 10.8354C1.0997 10.7997 1.14995 10.7997 1.16186 10.8353Z" fill="#F5F5F5"/>
<path d="M2.27709 5.79227L2.36869 6.06696L2.65823 6.06916C2.69573 6.06949 2.71125 6.1173 2.68111 6.13957L2.44819 6.3116L2.53556 6.58765C2.5469 6.62337 2.50617 6.65299 2.47565 6.63115L2.24011 6.46277L2.00456 6.63115C1.97405 6.65294 1.93341 6.62337 1.94466 6.58765L2.03203 6.3116L1.79911 6.13957C1.76897 6.11726 1.78449 6.06949 1.82199 6.06916L2.11153 6.06696L2.20312 5.79227C2.21489 5.75674 2.26523 5.75674 2.27709 5.79227Z" fill="#F5F5F5"/>
<path d="M2.27709 7.22932L2.36869 7.504L2.65823 7.50621C2.69573 7.50653 2.71125 7.55435 2.68111 7.57661L2.44819 7.74864L2.53556 8.02468C2.5469 8.0604 2.50617 8.09003 2.47565 8.06818L2.24011 7.89981L2.00456 8.06818C1.97405 8.08998 1.93341 8.06045 1.94466 8.02468L2.03203 7.74864L1.79911 7.57661C1.76897 7.5543 1.78449 7.50653 1.82199 7.50621L2.11153 7.504L2.20312 7.22932C2.21489 7.19374 2.26523 7.19374 2.27709 7.22932Z" fill="#F5F5F5"/>
<path d="M2.27709 8.66584L2.36869 8.94053L2.65823 8.94273C2.69573 8.94306 2.71125 8.99087 2.68111 9.01314L2.44819 9.18517L2.53556 9.46122C2.5469 9.49694 2.50617 9.52656 2.47565 9.50472L2.24011 9.33634L2.00456 9.50472C1.97405 9.52651 1.93341 9.49694 1.94466 9.46122L2.03203 9.18517L1.79911 9.01314C1.76897 8.99083 1.78449 8.94306 1.82199 8.94273L2.11153 8.94053L2.20312 8.66584C2.21489 8.63027 2.26523 8.63027 2.27709 8.66584Z" fill="#F5F5F5"/>
<path d="M2.27709 10.1028L2.36869 10.3775L2.65823 10.3797C2.69573 10.38 2.71125 10.4279 2.68111 10.4501L2.44819 10.6221L2.53556 10.8982C2.5469 10.9339 2.50617 10.9635 2.47565 10.9417L2.24011 10.7733L2.00456 10.9417C1.97405 10.9635 1.93341 10.9339 1.94466 10.8982L2.03203 10.6221L1.79911 10.4501C1.76897 10.4278 1.78449 10.38 1.82199 10.3797L2.11153 10.3775L2.20312 10.1028C2.21489 10.0673 2.26523 10.0673 2.27709 10.1028Z" fill="#F5F5F5"/>
<path d="M3.39233 5.08772L3.48393 5.3624L3.77347 5.36461C3.81097 5.36493 3.82649 5.41275 3.79635 5.43501L3.56343 5.60704L3.6508 5.88309C3.66214 5.9188 3.62141 5.94843 3.59089 5.92659L3.35535 5.75821L3.1198 5.92659C3.08928 5.94838 3.04864 5.9188 3.05989 5.88309L3.14727 5.60704L2.91435 5.43501C2.8842 5.4127 2.89972 5.36493 2.93722 5.36461L3.22677 5.3624L3.31836 5.08772C3.33017 5.05214 3.38047 5.05214 3.39233 5.08772Z" fill="#F5F5F5"/>
<path d="M3.39233 6.5247L3.48393 6.79938L3.77347 6.80159C3.81097 6.80191 3.82649 6.84973 3.79635 6.87199L3.56343 7.04402L3.6508 7.32007C3.66214 7.35579 3.62141 7.38541 3.59089 7.36357L3.35535 7.19519L3.1198 7.36357C3.08928 7.38536 3.04864 7.35579 3.05989 7.32007L3.14727 7.04402L2.91435 6.87199C2.8842 6.84968 2.89972 6.80191 2.93722 6.80159L3.22677 6.79938L3.31836 6.5247C3.33017 6.48916 3.38047 6.48916 3.39233 6.5247Z" fill="#F5F5F5"/>
<path d="M3.39233 7.96171L3.48393 8.2364L3.77347 8.2386C3.81097 8.23893 3.82649 8.28674 3.79635 8.30901L3.56343 8.48104L3.6508 8.75709C3.66214 8.79281 3.62141 8.82244 3.59089 8.80059L3.35535 8.63222L3.1198 8.80059C3.08928 8.82239 3.04864 8.79281 3.05989 8.75709L3.14727 8.48104L2.91435 8.30901C2.8842 8.2867 2.89972 8.23893 2.93722 8.2386L3.22677 8.2364L3.31836 7.96171C3.33017 7.92618 3.38047 7.92618 3.39233 7.96171Z" fill="#F5F5F5"/>
<path d="M3.39233 9.39827L3.48393 9.67295L3.77347 9.67516C3.81097 9.67548 3.82649 9.7233 3.79635 9.74556L3.56343 9.91759L3.6508 10.1936C3.66214 10.2294 3.62141 10.259 3.59089 10.2371L3.35535 10.0688L3.1198 10.2371C3.08928 10.2589 3.04864 10.2294 3.05989 10.1936L3.14727 9.91759L2.91435 9.74556C2.8842 9.72325 2.89972 9.67548 2.93722 9.67516L3.22677 9.67295L3.31836 9.39827C3.33017 9.36269 3.38047 9.36269 3.39233 9.39827Z" fill="#F5F5F5"/>
<path d="M3.39233 10.8353L3.48393 11.11L3.77347 11.1122C3.81097 11.1125 3.82649 11.1603 3.79635 11.1826L3.56343 11.3546L3.6508 11.6307C3.66214 11.6664 3.62141 11.696 3.59089 11.6742L3.35535 11.5058L3.1198 11.6742C3.08928 11.696 3.04864 11.6664 3.05989 11.6307L3.14727 11.3546L2.91435 11.1826C2.8842 11.1603 2.89972 11.1125 2.93722 11.1122L3.22677 11.11L3.31836 10.8353C3.33017 10.7997 3.38047 10.7997 3.39233 10.8353Z" fill="#F5F5F5"/>
<path d="M4.50756 5.79227L4.59916 6.06696L4.8887 6.06916C4.9262 6.06949 4.94172 6.1173 4.91158 6.13957L4.67866 6.3116L4.76603 6.58765C4.77737 6.62337 4.73664 6.65299 4.70612 6.63115L4.47058 6.46277L4.23503 6.63115C4.20452 6.65294 4.16388 6.62337 4.17513 6.58765L4.2625 6.3116L4.02958 6.13957C3.99944 6.11726 4.01495 6.06949 4.05245 6.06916L4.342 6.06696L4.43359 5.79227C4.44536 5.75674 4.4957 5.75674 4.50756 5.79227Z" fill="#F5F5F5"/>
<path d="M4.50756 7.22932L4.59916 7.504L4.8887 7.50621C4.9262 7.50653 4.94172 7.55435 4.91158 7.57661L4.67866 7.74864L4.76603 8.02468C4.77737 8.0604 4.73664 8.09003 4.70612 8.06818L4.47058 7.89981L4.23503 8.06818C4.20452 8.08998 4.16388 8.06045 4.17513 8.02468L4.2625 7.74864L4.02958 7.57661C3.99944 7.5543 4.01495 7.50653 4.05245 7.50621L4.342 7.504L4.43359 7.22932C4.44536 7.19374 4.4957 7.19374 4.50756 7.22932Z" fill="#F5F5F5"/>
<path d="M4.50756 8.66584L4.59916 8.94053L4.8887 8.94273C4.9262 8.94306 4.94172 8.99087 4.91158 9.01314L4.67866 9.18517L4.76603 9.46122C4.77737 9.49694 4.73664 9.52656 4.70612 9.50472L4.47058 9.33634L4.23503 9.50472C4.20452 9.52651 4.16388 9.49694 4.17513 9.46122L4.2625 9.18517L4.02958 9.01314C3.99944 8.99083 4.01495 8.94306 4.05245 8.94273L4.342 8.94053L4.43359 8.66584C4.44536 8.63027 4.4957 8.63027 4.50756 8.66584Z" fill="#F5F5F5"/>
<path d="M4.50756 10.1028L4.59916 10.3775L4.8887 10.3797C4.9262 10.38 4.94172 10.4279 4.91158 10.4501L4.67866 10.6221L4.76603 10.8982C4.77737 10.9339 4.73664 10.9635 4.70612 10.9417L4.47058 10.7733L4.23503 10.9417C4.20452 10.9635 4.16388 10.9339 4.17513 10.8982L4.2625 10.6221L4.02958 10.4501C3.99944 10.4278 4.01495 10.38 4.05245 10.3797L4.342 10.3775L4.43359 10.1028C4.44536 10.0673 4.4957 10.0673 4.50756 10.1028Z" fill="#F5F5F5"/>
<path d="M5.62333 5.08772L5.71493 5.3624L6.00447 5.36461C6.04197 5.36493 6.05749 5.41275 6.02735 5.43501L5.79443 5.60704L5.8818 5.88309C5.89315 5.9188 5.85241 5.94843 5.8219 5.92659L5.5863 5.75821L5.35076 5.92659C5.32024 5.94838 5.2796 5.9188 5.29085 5.88309L5.37822 5.60704L5.1453 5.43501C5.11516 5.4127 5.13068 5.36493 5.16818 5.36461L5.45772 5.3624L5.54932 5.08772C5.56118 5.05214 5.61147 5.05214 5.62333 5.08772Z" fill="#F5F5F5"/>
<path d="M5.62333 6.5247L5.71493 6.79938L6.00447 6.80159C6.04197 6.80191 6.05749 6.84973 6.02735 6.87199L5.79443 7.04402L5.8818 7.32007C5.89315 7.35579 5.85241 7.38541 5.8219 7.36357L5.5863 7.19519L5.35076 7.36357C5.32024 7.38536 5.2796 7.35579 5.29085 7.32007L5.37822 7.04402L5.1453 6.87199C5.11516 6.84968 5.13068 6.80191 5.16818 6.80159L5.45772 6.79938L5.54932 6.5247C5.56118 6.48916 5.61147 6.48916 5.62333 6.5247Z" fill="#F5F5F5"/>
<path d="M5.62333 7.96171L5.71493 8.2364L6.00447 8.2386C6.04197 8.23893 6.05749 8.28674 6.02735 8.30901L5.79443 8.48104L5.8818 8.75709C5.89315 8.79281 5.85241 8.82244 5.8219 8.80059L5.5863 8.63222L5.35076 8.80059C5.32024 8.82239 5.2796 8.79281 5.29085 8.75709L5.37822 8.48104L5.1453 8.30901C5.11516 8.2867 5.13068 8.23893 5.16818 8.2386L5.45772 8.2364L5.54932 7.96171C5.56118 7.92618 5.61147 7.92618 5.62333 7.96171Z" fill="#F5F5F5"/>
<path d="M5.62333 9.39827L5.71493 9.67295L6.00447 9.67516C6.04197 9.67548 6.05749 9.7233 6.02735 9.74556L5.79443 9.91759L5.8818 10.1936C5.89315 10.2294 5.85241 10.259 5.8219 10.2371L5.5863 10.0688L5.35076 10.2371C5.32024 10.2589 5.2796 10.2294 5.29085 10.1936L5.37822 9.91759L5.1453 9.74556C5.11516 9.72325 5.13068 9.67548 5.16818 9.67516L5.45772 9.67295L5.54932 9.39827C5.56118 9.36269 5.61147 9.36269 5.62333 9.39827Z" fill="#F5F5F5"/>
<path d="M5.62333 10.8353L5.71493 11.11L6.00447 11.1122C6.04197 11.1125 6.05749 11.1603 6.02735 11.1826L5.79443 11.3546L5.8818 11.6307C5.89315 11.6664 5.85241 11.696 5.8219 11.6742L5.5863 11.5058L5.35076 11.6742C5.32024 11.696 5.2796 11.6664 5.29085 11.6307L5.37822 11.3546L5.1453 11.1826C5.11516 11.1603 5.13068 11.1125 5.16818 11.1122L5.45772 11.11L5.54932 10.8353C5.56118 10.7997 5.61147 10.7997 5.62333 10.8353Z" fill="#F5F5F5"/>
<path d="M6.73852 5.79227L6.83012 6.06696L7.11967 6.06916C7.15717 6.06949 7.17268 6.1173 7.14254 6.13957L6.90962 6.3116L6.99699 6.58765C7.00834 6.62337 6.9676 6.65299 6.93709 6.63115L6.70154 6.46277L6.46599 6.63115C6.43547 6.65294 6.39483 6.62337 6.40608 6.58765L6.49346 6.3116L6.26054 6.13957C6.2304 6.11726 6.24591 6.06949 6.28341 6.06916L6.57296 6.06696L6.66455 5.79227C6.67641 5.75674 6.72666 5.75674 6.73852 5.79227Z" fill="#F5F5F5"/>
<path d="M6.73852 7.22932L6.83012 7.504L7.11967 7.50621C7.15717 7.50653 7.17268 7.55435 7.14254 7.57661L6.90962 7.74864L6.99699 8.02468C7.00834 8.0604 6.9676 8.09003 6.93709 8.06818L6.70154 7.89981L6.46599 8.06818C6.43547 8.08998 6.39483 8.06045 6.40608 8.02468L6.49346 7.74864L6.26054 7.57661C6.2304 7.5543 6.24591 7.50653 6.28341 7.50621L6.57296 7.504L6.66455 7.22932C6.67641 7.19374 6.72666 7.19374 6.73852 7.22932Z" fill="#F5F5F5"/>
<path d="M6.73852 8.66584L6.83012 8.94053L7.11967 8.94273C7.15717 8.94306 7.17268 8.99087 7.14254 9.01314L6.90962 9.18517L6.99699 9.46122C7.00834 9.49694 6.9676 9.52656 6.93709 9.50472L6.70154 9.33634L6.46599 9.50472C6.43547 9.52651 6.39483 9.49694 6.40608 9.46122L6.49346 9.18517L6.26054 9.01314C6.2304 8.99083 6.24591 8.94306 6.28341 8.94273L6.57296 8.94053L6.66455 8.66584C6.67641 8.63027 6.72666 8.63027 6.73852 8.66584Z" fill="#F5F5F5"/>
<path d="M6.73852 10.1028L6.83012 10.3775L7.11967 10.3797C7.15717 10.38 7.17268 10.4279 7.14254 10.4501L6.90962 10.6221L6.99699 10.8982C7.00834 10.9339 6.9676 10.9635 6.93709 10.9417L6.70154 10.7733L6.46599 10.9417C6.43547 10.9635 6.39483 10.9339 6.40608 10.8982L6.49346 10.6221L6.26054 10.4501C6.2304 10.4278 6.24591 10.38 6.28341 10.3797L6.57296 10.3775L6.66455 10.1028C6.67641 10.0673 6.72666 10.0673 6.73852 10.1028Z" fill="#F5F5F5"/>
<path d="M7.85376 5.08772L7.94535 5.3624L8.2349 5.36461C8.2724 5.36493 8.28792 5.41275 8.25778 5.43501L8.02485 5.60704L8.11223 5.88309C8.12357 5.9188 8.08284 5.94843 8.05232 5.92659L7.81677 5.75821L7.58123 5.92659C7.55071 5.94838 7.51007 5.9188 7.52132 5.88309L7.60869 5.60704L7.37577 5.43501C7.34563 5.4127 7.36115 5.36493 7.39865 5.36461L7.68819 5.3624L7.77979 5.08772C7.79155 5.05214 7.8419 5.05214 7.85376 5.08772Z" fill="#F5F5F5"/>
<path d="M7.85376 6.5247L7.94535 6.79938L8.2349 6.80159C8.2724 6.80191 8.28792 6.84973 8.25778 6.87199L8.02485 7.04402L8.11223 7.32007C8.12357 7.35579 8.08284 7.38541 8.05232 7.36357L7.81677 7.19519L7.58123 7.36357C7.55071 7.38536 7.51007 7.35579 7.52132 7.32007L7.60869 7.04402L7.37577 6.87199C7.34563 6.84968 7.36115 6.80191 7.39865 6.80159L7.68819 6.79938L7.77979 6.5247C7.79155 6.48916 7.8419 6.48916 7.85376 6.5247Z" fill="#F5F5F5"/>
<path d="M7.85376 7.96171L7.94535 8.2364L8.2349 8.2386C8.2724 8.23893 8.28792 8.28674 8.25778 8.30901L8.02485 8.48104L8.11223 8.75709C8.12357 8.79281 8.08284 8.82244 8.05232 8.80059L7.81677 8.63222L7.58123 8.80059C7.55071 8.82239 7.51007 8.79281 7.52132 8.75709L7.60869 8.48104L7.37577 8.30901C7.34563 8.2867 7.36115 8.23893 7.39865 8.2386L7.68819 8.2364L7.77979 7.96171C7.79155 7.92618 7.8419 7.92618 7.85376 7.96171Z" fill="#F5F5F5"/>
<path d="M7.85376 9.39827L7.94535 9.67295L8.2349 9.67516C8.2724 9.67548 8.28792 9.7233 8.25778 9.74556L8.02485 9.91759L8.11223 10.1936C8.12357 10.2294 8.08284 10.259 8.05232 10.2371L7.81677 10.0688L7.58123 10.2371C7.55071 10.2589 7.51007 10.2294 7.52132 10.1936L7.60869 9.91759L7.37577 9.74556C7.34563 9.72325 7.36115 9.67548 7.39865 9.67516L7.68819 9.67295L7.77979 9.39827C7.79155 9.36269 7.8419 9.36269 7.85376 9.39827Z" fill="#F5F5F5"/>
<path d="M7.85376 10.8353L7.94535 11.11L8.2349 11.1122C8.2724 11.1125 8.28792 11.1603 8.25778 11.1826L8.02485 11.3546L8.11223 11.6307C8.12357 11.6664 8.08284 11.696 8.05232 11.6742L7.81677 11.5058L7.58123 11.6742C7.55071 11.696 7.51007 11.6664 7.52132 11.6307L7.60869 11.3546L7.37577 11.1826C7.34563 11.1603 7.36115 11.1125 7.39865 11.1122L7.68819 11.11L7.77979 10.8353C7.79155 10.7997 7.8419 10.7997 7.85376 10.8353Z" fill="#F5F5F5"/>
<path d="M8.96899 5.79227L9.06058 6.06696L9.35013 6.06916C9.38763 6.06949 9.40314 6.1173 9.373 6.13957L9.14008 6.3116L9.22745 6.58765C9.2388 6.62337 9.19806 6.65299 9.16755 6.63115L8.932 6.46277L8.69646 6.63115C8.66594 6.65294 8.6253 6.62337 8.63655 6.58765L8.72393 6.3116L8.49101 6.13957C8.46086 6.11726 8.47638 6.06949 8.51388 6.06916L8.80342 6.06696L8.89502 5.79227C8.90683 5.75674 8.95717 5.75674 8.96899 5.79227Z" fill="#F5F5F5"/>
<path d="M8.96899 7.22932L9.06058 7.504L9.35013 7.50621C9.38763 7.50653 9.40314 7.55435 9.373 7.57661L9.14008 7.74864L9.22745 8.02468C9.2388 8.0604 9.19806 8.09003 9.16755 8.06818L8.932 7.89981L8.69646 8.06818C8.66594 8.08998 8.6253 8.06045 8.63655 8.02468L8.72393 7.74864L8.49101 7.57661C8.46086 7.5543 8.47638 7.50653 8.51388 7.50621L8.80342 7.504L8.89502 7.22932C8.90683 7.19374 8.95717 7.19374 8.96899 7.22932Z" fill="#F5F5F5"/>
<path d="M8.96899 8.66584L9.06058 8.94053L9.35013 8.94273C9.38763 8.94306 9.40314 8.99087 9.373 9.01314L9.14008 9.18517L9.22745 9.46122C9.2388 9.49694 9.19806 9.52656 9.16755 9.50472L8.932 9.33634L8.69646 9.50472C8.66594 9.52651 8.6253 9.49694 8.63655 9.46122L8.72393 9.18517L8.49101 9.01314C8.46086 8.99083 8.47638 8.94306 8.51388 8.94273L8.80342 8.94053L8.89502 8.66584C8.90683 8.63027 8.95717 8.63027 8.96899 8.66584Z" fill="#F5F5F5"/>
<path d="M8.96899 10.1028L9.06058 10.3775L9.35013 10.3797C9.38763 10.38 9.40314 10.4279 9.373 10.4501L9.14008 10.6221L9.22745 10.8982C9.2388 10.9339 9.19806 10.9635 9.16755 10.9417L8.932 10.7733L8.69646 10.9417C8.66594 10.9635 8.6253 10.9339 8.63655 10.8982L8.72393 10.6221L8.49101 10.4501C8.46086 10.4278 8.47638 10.38 8.51388 10.3797L8.80342 10.3775L8.89502 10.1028C8.90683 10.0673 8.95717 10.0673 8.96899 10.1028Z" fill="#F5F5F5"/>
<path d="M10.0842 5.08772L10.1758 5.3624L10.4654 5.36461C10.5029 5.36493 10.5184 5.41275 10.4882 5.43501L10.2553 5.60704L10.3427 5.88309C10.354 5.9188 10.3133 5.94843 10.2828 5.92659L10.0472 5.75821L9.81169 5.92659C9.78118 5.94838 9.74054 5.9188 9.75179 5.88309L9.83916 5.60704L9.60624 5.43501C9.5761 5.4127 9.59161 5.36493 9.62911 5.36461L9.91866 5.3624L10.0103 5.08772C10.0221 5.05214 10.0723 5.05214 10.0842 5.08772Z" fill="#F5F5F5"/>
<path d="M10.0842 6.5247L10.1758 6.79938L10.4654 6.80159C10.5029 6.80191 10.5184 6.84973 10.4882 6.87199L10.2553 7.04402L10.3427 7.32007C10.354 7.35579 10.3133 7.38541 10.2828 7.36357L10.0472 7.19519L9.81169 7.36357C9.78118 7.38536 9.74054 7.35579 9.75179 7.32007L9.83916 7.04402L9.60624 6.87199C9.5761 6.84968 9.59161 6.80191 9.62911 6.80159L9.91866 6.79938L10.0103 6.5247C10.0221 6.48916 10.0723 6.48916 10.0842 6.5247Z" fill="#F5F5F5"/>
<path d="M10.0842 7.96171L10.1758 8.2364L10.4654 8.2386C10.5029 8.23893 10.5184 8.28674 10.4882 8.30901L10.2553 8.48104L10.3427 8.75709C10.354 8.79281 10.3133 8.82244 10.2828 8.80059L10.0472 8.63222L9.81169 8.80059C9.78118 8.82239 9.74054 8.79281 9.75179 8.75709L9.83916 8.48104L9.60624 8.30901C9.5761 8.2867 9.59161 8.23893 9.62911 8.2386L9.91866 8.2364L10.0103 7.96171C10.0221 7.92618 10.0723 7.92618 10.0842 7.96171Z" fill="#F5F5F5"/>
<path d="M10.0842 9.39827L10.1758 9.67295L10.4654 9.67516C10.5029 9.67548 10.5184 9.7233 10.4882 9.74556L10.2553 9.91759L10.3427 10.1936C10.354 10.2294 10.3133 10.259 10.2828 10.2371L10.0472 10.0688L9.81169 10.2371C9.78118 10.2589 9.74054 10.2294 9.75179 10.1936L9.83916 9.91759L9.60624 9.74556C9.5761 9.72325 9.59161 9.67548 9.62911 9.67516L9.91866 9.67295L10.0103 9.39827C10.0221 9.36269 10.0723 9.36269 10.0842 9.39827Z" fill="#F5F5F5"/>
<path d="M10.0842 10.8353L10.1758 11.11L10.4654 11.1122C10.5029 11.1125 10.5184 11.1603 10.4882 11.1826L10.2553 11.3546L10.3427 11.6307C10.354 11.6664 10.3133 11.696 10.2828 11.6742L10.0472 11.5058L9.81169 11.6742C9.78118 11.696 9.74054 11.6664 9.75179 11.6307L9.83916 11.3546L9.60624 11.1826C9.5761 11.1603 9.59161 11.1125 9.62911 11.1122L9.91866 11.11L10.0103 10.8353C10.0221 10.7997 10.0723 10.7997 10.0842 10.8353Z" fill="#F5F5F5"/>
</svg>
