<svg width="20" height="20" viewBox="0 0 20 20" fill="none" xmlns="http://www.w3.org/2000/svg">
<path d="M0 6.89615V15.5942C0 16.9218 1.09388 18 2.44082 18H17.5592C18.9061 18 20 16.9218 20 15.5942V6.89615C20 5.63289 18.9592 4.60699 17.6776 4.60699H14.4286L14.351 4.27307C14.0367 2.93337 12.8408 2 11.4449 2H8.55102C7.15918 2 5.96327 2.93337 5.6449 4.27307L5.56735 4.60699H2.32245C1.04082 4.60699 0 5.63691 0 6.89615ZM5.96735 5.59266C6.2 5.59266 6.4 5.43576 6.45306 5.21046L6.62041 4.49434C6.83265 3.60523 7.62449 2.98567 8.55102 2.98567H11.4449C12.3714 2.98567 13.1633 3.60523 13.3755 4.49434L13.5429 5.21046C13.5959 5.43173 13.7959 5.59266 14.0286 5.59266H17.6735C18.4041 5.59266 18.9959 6.17601 18.9959 6.89615V15.5942C18.9959 16.3787 18.351 17.0143 17.5551 17.0143H2.44082C1.6449 17.0143 1 16.3787 1 15.5942V6.89615C1 6.17601 1.59184 5.59266 2.32245 5.59266H5.96735Z" fill="#828282"/>
<path d="M3.21423 7.99414C3.49038 7.99414 3.71423 7.77028 3.71423 7.49414C3.71423 7.218 3.49038 6.99414 3.21423 6.99414C2.93809 6.99414 2.71423 7.218 2.71423 7.49414C2.71423 7.77028 2.93809 7.99414 3.21423 7.99414Z" fill="#828282"/>
<circle cx="10" cy="11" r="3.5" stroke="#828282"/>
</svg>
