<svg width="20" height="20" viewBox="0 0 20 20" fill="none" xmlns="http://www.w3.org/2000/svg">
<path d="M16.9918 17.3318L15.9625 6.4891C15.9345 6.193 15.6721 5.96619 15.3578 5.96619H13.2353V5.06065C13.2353 3.37301 11.7838 2 9.99976 2C8.21578 2 6.7645 3.37301 6.7645 5.06065V5.96619H4.64045C4.3262 5.96619 4.06385 6.193 4.03576 6.4891L3.00243 17.3744C2.98721 17.5351 3.04404 17.6942 3.15907 17.8132C3.2741 17.9322 3.43672 18 3.60712 18H16.3913C16.3917 18 16.3924 18 16.3929 18C16.7282 18 17 17.7429 17 17.4257C16.9999 17.3938 16.9972 17.3623 16.9918 17.3318ZM7.97876 5.06065C7.97876 4.00634 8.8854 3.14858 9.99984 3.14858C11.1144 3.14858 12.0211 4.00634 12.0211 5.06065V5.96619H7.97876V5.06065ZM4.27124 16.8515L5.19553 7.11477H6.7645V8.14175C6.7645 8.45891 7.03625 8.71604 7.37163 8.71604C7.70701 8.71604 7.97876 8.45891 7.97876 8.14175V7.11477H12.0211V8.14175C12.0211 8.45891 12.2928 8.71604 12.6282 8.71604C12.9636 8.71604 13.2353 8.45891 13.2353 8.14175V7.11477H14.8029L15.7271 16.8515H4.27124Z" fill="white"/>
</svg>
