<svg width="28" height="32" viewBox="0 0 28 32" fill="none" xmlns="http://www.w3.org/2000/svg">
<path d="M27.9836 30.6635L25.9251 8.97821C25.8689 8.386 25.3442 7.93239 24.7157 7.93239H20.4705V6.12131C20.4705 2.74602 17.5676 0 13.9995 0C10.4316 0 7.52901 2.74602 7.52901 6.12131V7.93239H3.28091C2.65241 7.93239 2.12769 8.386 2.07151 8.97821L0.00485521 30.7488C-0.025582 31.0701 0.0880718 31.3885 0.318132 31.6265C0.548192 31.8645 0.87345 32 1.21425 32H26.7825C26.7835 32 26.7848 32 26.7857 32C27.4565 32 28 31.4857 28 30.8514C27.9998 30.7876 27.9943 30.7246 27.9836 30.6635ZM9.95751 6.12131C9.95751 4.01267 11.7708 2.29716 13.9997 2.29716C16.2287 2.29716 18.0422 4.01267 18.0422 6.12131V7.93239H9.95751V6.12131ZM2.54248 29.703L4.39106 10.2295H7.52901V12.2835C7.52901 12.9178 8.07251 13.4321 8.74326 13.4321C9.41401 13.4321 9.95751 12.9178 9.95751 12.2835V10.2295H18.0422V12.2835C18.0422 12.9178 18.5857 13.4321 19.2564 13.4321C19.9272 13.4321 20.4707 12.9178 20.4707 12.2835V10.2295H23.6057L25.4543 29.703H2.54248Z" fill="white"/>
</svg>
