<svg width="16" height="17" viewBox="0 0 16 17" fill="none" xmlns="http://www.w3.org/2000/svg">
<path d="M1.16699 4.24563L14.861 1.33496" stroke="#828282" stroke-linecap="round" stroke-linejoin="round"/>
<path d="M9.06637 0.521629L6.13304 1.14496C6.00423 1.17206 5.88203 1.22431 5.77346 1.29874C5.66489 1.37316 5.57208 1.46829 5.50036 1.57866C5.42864 1.68903 5.37941 1.81248 5.3555 1.94192C5.33159 2.07136 5.33347 2.20425 5.36104 2.33296L5.56904 3.31163L10.4597 2.27163L10.2517 1.29363C10.2246 1.16509 10.1724 1.04316 10.0982 0.93479C10.0239 0.826421 9.92906 0.733744 9.81898 0.662052C9.70891 0.59036 9.58578 0.541059 9.45665 0.516965C9.32751 0.49287 9.1949 0.494455 9.06637 0.521629V0.521629Z" stroke="#828282" stroke-linecap="round" stroke-linejoin="round"/>
<path d="M6.7998 11.5998V6.7998" stroke="#828282" stroke-linecap="round" stroke-linejoin="round"/>
<path d="M10 11.5998V6.7998" stroke="#828282" stroke-linecap="round" stroke-linejoin="round"/>
<path d="M12.4004 4.40039H14.0004L13.2444 14.6831C13.2236 14.9337 13.1091 15.1673 12.9238 15.3373C12.7385 15.5073 12.4959 15.6013 12.2444 15.6004H5.08772C4.83692 15.6002 4.59532 15.5059 4.41084 15.3359C4.22636 15.166 4.11246 14.933 4.09172 14.6831L3.40039 6.25172" stroke="#828282" stroke-linecap="round" stroke-linejoin="round"/>
</svg>
