<svg width="17" height="17" viewBox="0 0 17 17" fill="none" xmlns="http://www.w3.org/2000/svg">
<path d="M15.4835 9.19198C15.2543 9.19198 15.071 9.37534 15.071 9.60454V13.3573C15.071 14.3781 14.2397 15.2062 13.2221 15.2062H4.17012C3.1494 15.2062 2.32122 14.375 2.32122 13.3573V9.54342C2.32122 9.31422 2.13786 9.13086 1.90866 9.13086C1.67946 9.13086 1.49609 9.31422 1.49609 9.54342V13.3573C1.49609 14.8334 2.69711 16.0314 4.17012 16.0314H13.2221C14.6981 16.0314 15.8961 14.8304 15.8961 13.3573V9.60454C15.8961 9.3784 15.7127 9.19198 15.4835 9.19198Z" fill="#007DFF"/>
<path d="M8.40677 12.7552C8.48622 12.8346 8.59318 12.8774 8.69709 12.8774C8.80099 12.8774 8.90795 12.8377 8.98741 12.7552L11.6095 10.1331C11.7715 9.97112 11.7715 9.71135 11.6095 9.54938C11.4475 9.38741 11.1878 9.38741 11.0258 9.54938L9.10965 11.4686V3.09811C9.10965 2.86891 8.92629 2.68555 8.69709 2.68555C8.46789 2.68555 8.28452 2.86891 8.28452 3.09811V11.4686L6.36534 9.54938C6.20337 9.38741 5.9436 9.38741 5.78163 9.54938C5.61966 9.71135 5.61966 9.97112 5.78163 10.1331L8.40677 12.7552Z" fill="#007DFF"/>
</svg>
