<svg width="32" height="32" viewBox="0 0 32 32" fill="none" xmlns="http://www.w3.org/2000/svg">
<path d="M29.5748 17.384C29.1164 17.384 28.7497 17.7507 28.7497 18.2091V25.7147C28.7497 27.7561 27.0872 29.4125 25.0519 29.4125H6.94802C4.9066 29.4125 3.25023 27.75 3.25023 25.7147V18.0868C3.25023 17.6284 2.88351 17.2617 2.4251 17.2617C1.9667 17.2617 1.59998 17.6284 1.59998 18.0868V25.7147C1.59998 28.6668 4.00201 31.0627 6.94802 31.0627H25.0519C28.004 31.0627 30.4 28.6607 30.4 25.7147V18.2091C30.4 17.7568 30.0332 17.384 29.5748 17.384Z" fill="#828282"/>
<path d="M15.4194 24.5103C15.5783 24.6692 15.7922 24.7548 16 24.7548C16.2078 24.7548 16.4217 24.6753 16.5807 24.5103L21.8248 19.2662C22.1488 18.9422 22.1488 18.4227 21.8248 18.0988C21.5009 17.7748 20.9813 17.7748 20.6574 18.0988L16.8251 21.9371V5.19622C16.8251 4.73782 16.4584 4.37109 16 4.37109C15.5416 4.37109 15.1749 4.73782 15.1749 5.19622V21.9371L11.3365 18.0988C11.0126 17.7748 10.493 17.7748 10.1691 18.0988C9.84516 18.4227 9.84516 18.9422 10.1691 19.2662L15.4194 24.5103Z" fill="#828282"/>
</svg>
