<svg width="62" height="34" viewBox="0 0 62 34" fill="none" xmlns="http://www.w3.org/2000/svg">
<rect x="0.5" y="0.5" width="61" height="33" rx="3.5" fill="white" stroke="#E0E0E0"/>
<g clip-path="url(#clip0)">
<path d="M16.8286 14.181H17.981L17.4048 12.7588L16.8286 14.181Z" fill="#2FABF7"/>
<path d="M31.1288 12.9619C31.024 12.9111 30.8669 12.9111 30.7097 12.9111H29.6621V13.7238H30.7097C30.8669 13.7238 31.024 13.7238 31.1288 13.673C31.2335 13.6222 31.2859 13.4698 31.2859 13.3174C31.3383 13.1142 31.2335 13.0127 31.1288 12.9619Z" fill="#228FE0"/>
<path d="M42.3381 11.4382V12.0477L42.0238 11.4382H39.5619V12.0477L39.2476 11.4382H35.8952C35.319 11.4382 34.8476 11.5398 34.4286 11.7429V11.4382H32.0714V11.7429C31.8095 11.5398 31.4952 11.4382 31.0762 11.4382H22.6429L22.0667 12.708L21.4905 11.4382H18.819V12.0477L18.5048 11.4382H16.2524L15.2048 13.8255L14 16.4667H15.2048H16.6714L16.9857 15.654H17.719L18.0333 16.4667H21.0714V15.8572L21.3333 16.4667H22.8524L23.1143 15.8572V16.4667H30.3952V15.1461H30.5C30.6048 15.1461 30.6048 15.1461 30.6048 15.2985V16.4159H34.3762V16.1112C34.6905 16.2636 35.1619 16.4159 35.7905 16.4159H37.3619L37.6762 15.6033H38.4095L38.7238 16.4159H41.7619V15.654L42.2333 16.4159H44.6952V11.4382H42.3381ZM24.6333 15.7048H23.7429V12.9112L22.4857 15.7048H21.7L20.4429 12.9112V15.7048H18.6619L18.2952 14.9429H16.5143L16.2 15.7556H15.2048L16.7762 12.1493H18.0857L19.5524 15.5525V12.1493H20.9667L22.119 14.5874L23.1667 12.1493H24.6333V15.7048ZM28.1952 12.9112H26.1524V13.5715H28.1429V14.2826H26.1524V14.9937H28.1952V15.7556H25.2619V12.1493H28.1952V12.9112ZM32.1238 14.3842C32.2286 14.5874 32.281 14.7398 32.281 15.0445V15.7556H31.3905V15.2985C31.3905 15.0953 31.3905 14.7906 31.2333 14.5874C31.0762 14.435 30.919 14.435 30.6048 14.435H29.6619V15.7556H28.7714V12.1493H30.7619C31.2333 12.1493 31.5476 12.1493 31.8095 12.3017C32.0714 12.454 32.2286 12.708 32.2286 13.1144C32.2286 13.6731 31.8619 13.9779 31.6 14.0794C31.8619 14.1302 32.019 14.2826 32.1238 14.3842ZM33.6952 15.7048H32.8048V12.0985H33.6952V15.7048ZM44.0143 15.7048H42.7571L41.081 13.0128V15.7048H39.3L38.9857 14.9429H37.1524L36.8381 15.7556H35.8429C35.4238 15.7556 34.9 15.654 34.5857 15.3493C34.2714 15.0445 34.1143 14.6382 34.1143 13.9779C34.1143 13.4699 34.219 12.962 34.5857 12.5556C34.8476 12.2509 35.319 12.1493 35.8952 12.1493H36.7333V12.9112H35.8952C35.581 12.9112 35.4238 12.962 35.2143 13.1144C35.0571 13.2667 34.9524 13.5715 34.9524 13.9271C34.9524 14.3334 35.0048 14.5874 35.2143 14.7906C35.3714 14.9429 35.581 14.9937 35.8429 14.9937H36.2095L37.4143 12.2001H38.7238L40.1905 15.6033V12.2001H41.5L43.0191 14.689V12.2001H43.9095V15.7048H44.0143Z" fill="#0571C1"/>
<path d="M37.4668 14.181H38.6716L38.0954 12.7588L37.4668 14.181Z" fill="#228FE0"/>
<path d="M28.5621 21.4952V18.6L27.2002 20.0222L28.5621 21.4952Z" fill="#228FE0"/>
<path d="M22.957 18.9556V19.6159H24.8951V20.327H22.957V21.0889H25.1046L26.0999 20.0222L25.157 18.9556H22.957Z" fill="#2FABF7"/>
<path d="M30.5521 18.9556H29.4521V19.8698H30.6045C30.9188 19.8698 31.1283 19.7175 31.1283 19.4127C31.076 19.1079 30.8664 18.9556 30.5521 18.9556Z" fill="#228FE0"/>
<path d="M46.7379 19.819V17.5333H46.1093H44.5379C44.0665 17.5333 43.6998 17.6349 43.4379 17.8381V17.5333H41.0284C40.6617 17.5333 40.1903 17.6349 39.9808 17.8381V17.5333H35.7379V17.8381C35.4236 17.5841 34.8474 17.5333 34.5855 17.5333H31.757V17.8381C31.4951 17.5841 30.8665 17.5333 30.5522 17.5333H27.4093L26.676 18.2952L25.995 17.5333H21.2808V22.5111H25.8903L26.6236 21.7492L27.3046 22.5111H30.1331V21.3428H30.4998C30.8665 21.3428 31.3379 21.3428 31.7046 21.1905V22.5619H34.0617V21.2413H34.1665C34.3236 21.2413 34.3236 21.2413 34.3236 21.3936V22.5619H41.4474C41.9189 22.5619 42.3903 22.4603 42.6522 22.2571V22.5619H44.9046C45.376 22.5619 45.8474 22.5111 46.1617 22.3079C46.6855 22.0032 46.9998 21.4444 46.9998 20.7841C46.9998 20.4286 46.8951 20.073 46.7379 19.819ZM30.4998 20.6317H29.4522V21.8508H27.776L26.7284 20.6825L25.6284 21.8508H22.1712V18.2444H25.6808L26.7284 19.4127L27.8284 18.2444H30.6046C31.2855 18.2444 32.0712 18.4476 32.0712 19.4127C32.0189 20.4286 31.2855 20.6317 30.4998 20.6317ZM35.7379 20.4286C35.8427 20.5809 35.8951 20.7841 35.8951 21.0889V21.8H35.0046V21.3428C35.0046 21.1397 35.0046 20.7841 34.8474 20.6317C34.7427 20.4794 34.5331 20.4794 34.2189 20.4794H33.276V21.8H32.3855V18.1936H34.376C34.7951 18.1936 35.1617 18.1936 35.4236 18.346C35.6855 18.4984 35.8951 18.7524 35.8951 19.1587C35.8951 19.7175 35.5284 20.0222 35.2665 20.1238C35.5284 20.2254 35.6855 20.327 35.7379 20.4286ZM39.3522 18.9555H37.3093V19.6159H39.2998V20.327H37.3093V21.0381H39.3522V21.8H36.4189V18.1936H39.3522V18.9555ZM41.5522 21.8H39.876V21.0381H41.5522C41.7093 21.0381 41.8141 21.0381 41.9189 20.9365C41.9712 20.8857 42.0236 20.7841 42.0236 20.6825C42.0236 20.5809 41.9712 20.4794 41.9189 20.4286C41.8665 20.3778 41.7617 20.327 41.6046 20.327C40.7665 20.2762 39.7712 20.327 39.7712 19.2095C39.7712 18.7016 40.0855 18.1428 41.0284 18.1428H42.757V19.0063H41.1332C40.976 19.0063 40.8712 19.0063 40.7665 19.0571C40.6617 19.1079 40.6617 19.2095 40.6617 19.3111C40.6617 19.4635 40.7665 19.5143 40.8712 19.5651C40.976 19.6159 41.0808 19.6159 41.1855 19.6159H41.657C42.1284 19.6159 42.4427 19.7175 42.6522 19.9206C42.8093 20.073 42.9141 20.327 42.9141 20.6825C42.9141 21.4444 42.4427 21.8 41.5522 21.8ZM46.057 21.4444C45.8474 21.6476 45.4808 21.8 44.957 21.8H43.2808V21.0381H44.957C45.1141 21.0381 45.2189 21.0381 45.3236 20.9365C45.376 20.8857 45.4284 20.7841 45.4284 20.6825C45.4284 20.5809 45.376 20.4794 45.3236 20.4286C45.2713 20.3778 45.1665 20.327 45.0093 20.327C44.1713 20.2762 43.176 20.327 43.176 19.2095C43.176 18.7016 43.4903 18.1428 44.4332 18.1428H46.1617V19.0063H44.5903C44.4332 19.0063 44.3284 19.0063 44.2236 19.0571C44.1189 19.1079 44.1189 19.2095 44.1189 19.3111C44.1189 19.4635 44.1712 19.5143 44.3284 19.5651C44.4332 19.6159 44.5379 19.6159 44.6427 19.6159H45.1141C45.5855 19.6159 45.8998 19.7175 46.1093 19.9206C46.1617 19.9206 46.1617 19.9714 46.1617 19.9714C46.3189 20.1746 46.3713 20.4286 46.3713 20.6825C46.3713 20.9873 46.2665 21.2413 46.057 21.4444Z" fill="#0571C1"/>
<path d="M34.7953 19.0571C34.6905 19.0063 34.5334 19.0063 34.3762 19.0063H33.3286V19.819H34.3762C34.5334 19.819 34.6905 19.819 34.7953 19.7682C34.9 19.7174 34.9524 19.565 34.9524 19.4126C35.0048 19.2095 34.9 19.1079 34.7953 19.0571Z" fill="#228FE0"/>
<path d="M31.1288 12.962C31.024 12.9112 30.8669 12.9112 30.7097 12.9112H29.6621V13.7239H30.7097C30.8669 13.7239 31.024 13.7239 31.1288 13.6731C31.2335 13.6223 31.2859 13.4699 31.2859 13.3175C31.3383 13.1144 31.2335 13.0128 31.1288 12.962Z" fill="#228FE0"/>
<path d="M37.4668 14.181H38.6716L38.0954 12.7588L37.4668 14.181Z" fill="#228FE0"/>
<path d="M28.5621 21.4952V18.6L27.2002 20.0222L28.5621 21.4952Z" fill="#228FE0"/>
<path d="M30.5521 18.9556H29.4521V19.8698H30.6045C30.9188 19.8698 31.1283 19.7175 31.1283 19.4127C31.076 19.1079 30.8664 18.9556 30.5521 18.9556Z" fill="#228FE0"/>
<path d="M34.7953 19.0571C34.6905 19.0063 34.5334 19.0063 34.3762 19.0063H33.3286V19.819H34.3762C34.5334 19.819 34.6905 19.819 34.7953 19.7682C34.9 19.7174 34.9524 19.565 34.9524 19.4126C35.0048 19.2095 34.9 19.1079 34.7953 19.0571Z" fill="#228FE0"/>
<path d="M30.1855 21.6985L29.4522 20.9366V21.8001H27.7236L26.676 20.6318L25.5236 21.8001H22.0665V18.2445H25.576L26.676 19.4128L27.1998 18.8032L25.8903 17.5334H21.2808V22.5112H25.8903L26.676 21.7493L27.357 22.5112H30.1855V21.6985Z" fill="#2FABF7"/>
<path d="M24.7381 16.416L24.0571 15.7048H23.7429V15.4001L22.9571 14.6382L22.4333 15.7048H21.7L20.4429 12.9112V15.7048H18.6619L18.2952 14.9429H16.5143L16.1476 15.7048H15.2048L16.7762 12.1493H18.0857L19.5524 15.5525V12.1493H20.3381L19.6048 11.4382H18.819V12.0477L18.5571 11.4382H16.2524L15.2048 13.8255L14 16.416H15.2048H16.7238L17.0381 15.654H17.7714L18.1381 16.416H21.0714V15.8064L21.3333 16.416H22.8524L23.1143 15.8064V16.416H24.7381Z" fill="#2FABF7"/>
<path d="M22.3288 14.0794L21.4907 13.2667L22.1193 14.5874L22.3288 14.0794Z" fill="#2FABF7"/>
<path d="M46.1618 22.257C46.6332 21.9523 46.9475 21.4443 46.9999 20.8856L46.2666 20.1745C46.3189 20.3269 46.3713 20.4793 46.3713 20.6824C46.3713 20.9872 46.2666 21.2412 46.057 21.4443C45.8475 21.6475 45.4808 21.7999 44.957 21.7999H43.2808V21.038H44.957C45.1142 21.038 45.2189 21.038 45.3237 20.9364C45.3761 20.8856 45.4285 20.784 45.4285 20.6824C45.4285 20.5809 45.3761 20.4793 45.3237 20.4285C45.2713 20.3777 45.1666 20.3269 45.0094 20.3269C44.1713 20.2761 43.1761 20.3269 43.1761 19.2094C43.1761 18.7015 43.4904 18.2444 44.2761 18.1428L43.6999 17.584C43.5951 17.6348 43.5427 17.6856 43.4904 17.6856V17.3809H41.0808C40.7142 17.3809 40.2428 17.4824 40.0332 17.6856V17.3809H35.738V17.6856C35.4237 17.4317 34.8475 17.3809 34.5856 17.3809H31.757V17.6856C31.4951 17.4317 30.8666 17.3809 30.5523 17.3809H27.4094L26.6761 18.1428L25.9951 17.3809H25.4189L26.9904 18.9047L27.7761 18.092H30.5523C31.2332 18.092 32.0189 18.2951 32.0189 19.2602C32.0189 20.2761 31.2856 20.4793 30.4999 20.4793H29.4523V21.2412L30.238 22.0031V21.2412H30.4999C30.8666 21.2412 31.338 21.2412 31.7047 21.0888V22.4602H34.0618V21.1396H34.1666C34.3237 21.1396 34.3237 21.1396 34.3237 21.292V22.4602H41.4475C41.9189 22.4602 42.3904 22.3586 42.6523 22.1555V22.4602H44.9047C45.3237 22.511 45.7951 22.4602 46.1618 22.257ZM35.738 20.4285C35.8428 20.5809 35.8951 20.784 35.8951 21.0888V21.7999H35.0047V21.3428C35.0047 21.1396 35.0047 20.784 34.8475 20.6316C34.7428 20.4793 34.5332 20.4793 34.2189 20.4793H33.2761V21.7999H32.3856V18.1936H34.3761C34.7951 18.1936 35.1618 18.1936 35.4237 18.3459C35.6856 18.4983 35.8951 18.7523 35.8951 19.1586C35.8951 19.7174 35.5285 20.0221 35.2666 20.1237C35.5285 20.2253 35.6856 20.3269 35.738 20.4285ZM39.3523 18.9555H37.3094V19.6158H39.2999V20.3269H37.3094V21.038H39.3523V21.7999H36.4189V18.1936H39.3523V18.9555ZM41.5523 21.7999H39.8761V21.038H41.5523C41.7094 21.038 41.8142 21.038 41.9189 20.9364C41.9713 20.8856 42.0237 20.784 42.0237 20.6824C42.0237 20.5809 41.9713 20.4793 41.9189 20.4285C41.8666 20.3777 41.7618 20.3269 41.6047 20.3269C40.7666 20.2761 39.7713 20.3269 39.7713 19.2094C39.7713 18.7015 40.0856 18.1428 41.0285 18.1428H42.757V19.0063H41.1332C40.9761 19.0063 40.8713 19.0063 40.7666 19.057C40.6618 19.1078 40.6618 19.2094 40.6618 19.311C40.6618 19.4634 40.7666 19.5142 40.8713 19.565C40.9761 19.6158 41.0808 19.6158 41.1856 19.6158H41.657C42.1285 19.6158 42.4428 19.7174 42.6523 19.9205C42.8094 20.0729 42.9142 20.3269 42.9142 20.6824C42.9142 21.4443 42.4427 21.7999 41.5523 21.7999Z" fill="#228FE0"/>
<path d="M44.0664 19.311C44.0664 19.4634 44.1188 19.5142 44.2759 19.565C44.3807 19.6158 44.4855 19.6158 44.5902 19.6158H45.0616C45.3759 19.6158 45.5855 19.6666 45.795 19.7682L45.0093 19.0063H44.5378C44.3807 19.0063 44.2759 19.0063 44.1712 19.0571C44.1188 19.1079 44.0664 19.2095 44.0664 19.311Z" fill="#228FE0"/>
<path d="M42.2334 16.2634L42.3382 16.4158H42.3905L42.2334 16.2634Z" fill="#228FE0"/>
<path d="M39.3521 13.4698L40.2425 15.5523V14.3333L39.3521 13.4698Z" fill="#228FE0"/>
<path d="M30.3951 15.146H30.4998C30.6046 15.146 30.6046 15.146 30.6046 15.2984V16.4158H34.376V16.1111C34.6903 16.2634 35.1617 16.4158 35.7903 16.4158H37.3617L37.676 15.6031H38.4094L38.7236 16.4158H41.7617V15.9079L41.0284 15.1968V15.7555H39.2475L38.9855 14.9428H37.1522L36.8379 15.7555H35.8427C35.4236 15.7555 34.8998 15.6539 34.5855 15.3491C34.2713 15.0444 34.1141 14.638 34.1141 13.9777C34.1141 13.4698 34.2189 12.9618 34.5855 12.5555C34.8475 12.2507 35.3189 12.1491 35.8951 12.1491H36.7332V12.9111H35.8951C35.5808 12.9111 35.4236 12.9618 35.2141 13.1142C35.057 13.2666 34.9522 13.5714 34.9522 13.9269C34.9522 14.3333 35.0046 14.5872 35.2141 14.7904C35.3713 14.9428 35.5808 14.9936 35.8427 14.9936H36.2094L37.4141 12.1999H37.9379L37.2046 11.4888H35.8427C35.2665 11.4888 34.7951 11.5904 34.376 11.7936V11.4888H32.0713V11.7936C31.8094 11.5904 31.4951 11.4888 31.076 11.4888H22.6427L22.0665 12.7587L21.4903 11.4888H19.1855L19.9189 12.1999H20.9665L21.857 14.0793L22.1713 14.3841L23.1141 12.1491H24.5808V15.7555H23.6903V12.9618L22.7998 14.9936L24.3189 16.4666H30.3427L30.3951 15.146ZM32.8046 12.1491H33.6951V15.7555H32.8046V12.1491ZM28.1951 12.9111H26.1522V13.5714H28.1427V14.2825H26.1522V14.9936H28.1951V15.7555H25.2617V12.1491H28.1951V12.9111ZM29.6617 15.7047H28.7713V12.0984H30.7617C31.2332 12.0984 31.5475 12.0984 31.8094 12.2507C32.0713 12.4031 32.2284 12.6571 32.2284 13.0634C32.2284 13.6222 31.8617 13.9269 31.5998 14.0285C31.8094 14.0793 31.9665 14.2317 32.0189 14.3333C32.1236 14.5365 32.176 14.6888 32.176 14.9936V15.7047H31.2855V15.2476C31.2855 15.0444 31.2855 14.7396 31.1284 14.5365C31.076 14.4349 30.9189 14.4349 30.6046 14.4349H29.6617V15.7047Z" fill="#228FE0"/>
</g>
<defs>
<clipPath id="clip0">
<rect x="14" y="1" width="33" height="32" fill="white"/>
</clipPath>
</defs>
</svg>
