<svg width="28" height="28" viewBox="0 0 28 28" fill="none" xmlns="http://www.w3.org/2000/svg">
<path d="M25.5058 20.3948L21.0633 17.4911C20.6179 17.2089 20.0808 17.1092 19.5638 17.2126C19.0467 17.316 18.5893 17.6145 18.2867 18.0462C17.2615 19.2846 16.0228 21.3343 11.3667 16.6797C6.7106 12.0252 8.71827 10.7441 9.95704 9.71925C10.3889 9.41674 10.6875 8.95954 10.7909 8.44263C10.8944 7.92573 10.7946 7.38887 10.5124 6.94359L7.60764 2.50255C7.2232 1.94742 6.7106 1.05067 5.51454 1.22148C4.31849 1.39229 1.2002 3.14308 1.2002 6.9863C1.2002 10.8295 4.23305 15.5268 8.37654 19.6689C12.52 23.811 17.2188 26.8002 21.0206 26.8002C24.8223 26.8002 26.6591 23.384 26.7873 22.53C26.9154 21.6759 26.0611 20.7792 25.5058 20.3948Z" stroke="#333333" stroke-width="1.5" stroke-linejoin="round"/>
</svg>
