<svg width="48" height="48" viewBox="0 0 48 48" fill="none" xmlns="http://www.w3.org/2000/svg">
<path d="M11.9992 14.4004H7.19922V16.0004H11.9992V14.4004Z" fill="white"/>
<path d="M22.3996 14.4004H17.5996V16.0004H22.3996V14.4004Z" fill="white"/>
<path d="M32 14.4004H28V16.0004H32V14.4004Z" fill="white"/>
<path d="M41.5988 14.4004H36.7988V16.0004H41.5988V14.4004Z" fill="white"/>
<path d="M11.9992 18.4004H7.19922V20.0004H11.9992V18.4004Z" fill="white"/>
<path d="M22.3996 18.4004H17.5996V20.0004H22.3996V18.4004Z" fill="white"/>
<path d="M32 18.4004H28V20.0004H32V18.4004Z" fill="white"/>
<path d="M41.5988 18.4004H36.7988V20.0004H41.5988V18.4004Z" fill="white"/>
<path d="M23.5645 30.9192C23.6789 30.6168 23.9717 30.4 24.3141 30.4C24.7549 30.4 25.1141 30.7592 25.1141 31.2H26.7141C26.7141 30.1584 26.0429 29.2784 25.1141 28.9472V28H23.5141V28.9472C22.5853 29.2784 21.9141 30.1584 21.9141 31.2C21.9141 31.412 21.9981 31.616 22.1485 31.7656L25.0637 34.6808C24.9493 34.9832 24.6565 35.2 24.3141 35.2C23.8733 35.2 23.5141 34.8408 23.5141 34.4H21.9141C21.9141 35.4416 22.5853 36.3216 23.5141 36.6528V37.6H25.1141V36.6528C26.0429 36.3216 26.7141 35.4416 26.7141 34.4C26.7141 34.188 26.6301 33.984 26.4797 33.8344L23.5645 30.9192Z" fill="white"/>
<path d="M41.1113 30.4004H33.1113V32.0004H41.1113V30.4004Z" fill="white"/>
<path d="M42.7121 35.2002H33.9121V36.8002H42.7121V35.2002Z" fill="white"/>
<path d="M15.5137 30.4004H7.51367V32.0004H15.5137V30.4004Z" fill="white"/>
<path d="M14.7141 35.2002H5.91406V36.8002H14.7141V35.2002Z" fill="white"/>
<path d="M41.6 3.2002H40V6.4002H41.6V3.2002Z" fill="white"/>
<path d="M38.3988 3.2002H36.7988V6.4002H38.3988V3.2002Z" fill="white"/>
<path d="M35.1996 3.2002H33.5996V6.4002H35.1996V3.2002Z" fill="white"/>
<path d="M32.0004 3.2002H30.4004V6.4002H32.0004V3.2002Z" fill="white"/>
<path d="M10.3992 3.2002H7.19922V4.8002H10.3992V3.2002Z" fill="white"/>
<path d="M14.3992 6.40039H7.19922V8.00039H14.3992V6.40039Z" fill="white"/>
<path d="M47.6446 43.6016L47.5166 42.32C47.5142 42.2992 47.503 42.2816 47.499 42.2608L45.5998 24.7568V4C45.5998 1.7944 43.8054 0 41.5998 0H6.39984C4.19424 0 2.39984 1.7944 2.39984 4V24.7568L0.501444 42.2616C0.497444 42.2824 0.486244 42.2992 0.483844 42.32L0.355844 43.6016C0.243044 44.724 0.613444 45.8472 1.37024 46.6832C2.12624 47.52 3.20784 48 4.33584 48H43.6638C44.7918 48 45.8734 47.52 46.6302 46.6832C47.387 45.8472 47.7566 44.724 47.6446 43.6016ZM3.99984 4C3.99984 2.6768 5.07664 1.6 6.39984 1.6H41.5998C42.923 1.6 43.9998 2.6768 43.9998 4V9.6H3.99984V4V4ZM3.99984 11.2H43.9998V24H3.99984V11.2V11.2ZM3.91744 25.6H44.0814L45.8166 41.6H2.18224L3.91744 25.6ZM45.4438 45.6104C44.983 46.1192 44.3502 46.4 43.6638 46.4H4.33584C3.64944 46.4 3.01744 46.1192 2.55584 45.6104C2.09504 45.1016 1.87904 44.4448 1.94784 43.7616L1.94864 43.7552L2.00864 43.2H45.991L46.0518 43.7616C46.1198 44.4448 45.9038 45.1016 45.4438 45.6104Z" fill="white"/>
</svg>
