<svg width="86" height="86" viewBox="0 0 86 86" fill="none" xmlns="http://www.w3.org/2000/svg">
<circle cx="43" cy="43" r="42.5" stroke="#FFAB1B"/>
<g clip-path="url(#clip0)">
<path d="M66.5756 30.5897H66.5788L62.4473 23.5918C61.8922 22.6559 60.8862 22.0805 59.798 22.0769H27.0123C26.0071 22.0769 25.0651 22.5678 24.4892 23.3918L19.5508 30.4712C19.1904 30.9873 18.998 31.6021 19 32.2317V34.1496C19.0124 36.2563 20.3782 38.1162 22.3846 38.7585V62.8994C22.3706 63.4506 22.806 63.9087 23.3571 63.9228C23.3646 63.923 23.372 63.9231 23.3795 63.9231H62.5635C63.1348 63.926 63.6029 63.4705 63.6154 62.8994V38.777C65.6309 38.1361 66.9998 36.2645 67 34.1495V32.1472C66.9959 31.6 66.8497 31.0634 66.5756 30.5897ZM47.718 61.8718H38.2821V47.9231H47.718V61.8718ZM61.5641 61.8718H49.7692V46.9071C49.7527 46.3318 49.2825 45.8734 48.7069 45.8718H37.2359C36.6744 45.8781 36.2243 46.3385 36.2307 46.9001C36.2307 46.9024 36.2308 46.9048 36.2308 46.9071V61.8718H24.4359V38.9563C25.4641 38.8264 26.4245 38.3734 27.1787 37.6627C28.643 40.7276 32.3147 42.0252 35.3797 40.5609C36.3798 40.0832 37.2321 39.344 37.8467 38.4216C39.7355 41.2523 43.5615 42.0158 46.3921 40.127C47.0887 39.6621 47.6832 39.0602 48.1393 38.3579C50.0137 41.2141 53.8485 42.01 56.7047 40.1356C57.6334 39.5261 58.3807 38.6779 58.8684 37.6801C59.6126 38.3739 60.5552 38.8177 61.5641 38.9494V61.8718ZM64.9487 34.1495C64.9502 35.6892 63.7032 36.9384 62.1636 36.94C60.8497 36.9412 59.7132 36.0248 59.4359 34.7404L59.3688 34.0493C59.3102 33.4859 58.8059 33.0768 58.2425 33.1355C57.7223 33.1896 57.3263 33.6265 57.3231 34.1495C57.323 34.4498 57.3508 34.7496 57.4062 35.0448L57.4069 35.0515C57.3847 37.3158 55.5312 39.1334 53.2669 39.1113C51.0146 39.0892 49.2018 37.2543 49.2069 35.0019C49.2071 34.4351 48.7481 33.9753 48.1812 33.9743H48.0975C47.5306 33.9753 47.0716 34.4351 47.0718 35.0019C47.0835 37.2663 45.2573 39.1116 42.9928 39.1233C40.7284 39.135 38.8832 37.3088 38.8715 35.0443C38.8714 35.0307 38.8714 35.017 38.8715 35.0033C38.8715 34.4368 38.4123 33.9776 37.8459 33.9776C37.2794 33.9776 36.8202 34.4368 36.8202 35.0033C36.8159 37.2678 34.9767 39.1 32.7122 39.0957C30.4665 39.0915 28.6421 37.2814 28.62 35.0358L28.6383 34.7617C28.664 34.5585 28.6768 34.3539 28.6768 34.1491C28.6769 33.5826 28.2179 33.1234 27.6514 33.1233C27.1113 33.1232 26.6636 33.5419 26.6278 34.0809L26.5963 34.5536C26.3752 36.0769 24.961 37.1324 23.4379 36.9113C22.0663 36.7122 21.0495 35.5355 21.0513 34.1495V32.2316C21.0499 32.0219 21.1132 31.8169 21.2327 31.6446L26.1728 24.5658C26.3642 24.2914 26.6778 24.1279 27.0123 24.1282H59.798C60.1604 24.1286 60.4959 24.3198 60.681 24.6314L64.8093 31.6262C64.9017 31.7843 64.9498 31.9642 64.9487 32.1472V34.1495Z" fill="#FFAB1B"/>
<path d="M33.2567 46.282H26.7952C26.2287 46.282 25.7695 46.7412 25.7695 47.3076V53.3589C25.7695 53.9254 26.2287 54.3845 26.7952 54.3845H33.2567C33.8232 54.3845 34.2824 53.9254 34.2824 53.3589V47.3076C34.2824 46.7412 33.8232 46.282 33.2567 46.282ZM32.2311 52.3333H27.8208V48.3333H32.2311V52.3333Z" fill="#FFAB1B"/>
<path d="M59.1024 46.282H52.6409C52.0744 46.282 51.6152 46.7412 51.6152 47.3076V53.3589C51.6152 53.9254 52.0744 54.3845 52.6409 54.3845H59.1024C59.6689 54.3845 60.1281 53.9254 60.1281 53.3589V47.3076C60.1281 46.7412 59.6689 46.282 59.1024 46.282ZM58.0768 52.3333H53.6665V48.3333H58.0768V52.3333Z" fill="#FFAB1B"/>
</g>
<defs>
<clipPath id="clip0">
<path d="M19 19H67V67H19V19Z" fill="white"/>
</clipPath>
</defs>
</svg>
