<svg width="16" height="16" viewBox="0 0 16 16" fill="none" xmlns="http://www.w3.org/2000/svg">
<path d="M13.7524 11.1969L11.5312 9.74505C11.3084 9.60398 11.0399 9.55411 10.7814 9.6058C10.5229 9.65749 10.2942 9.80677 10.1429 10.0226C9.63028 10.6418 9.01089 11.6667 6.68285 9.33938C4.35481 7.0121 5.35865 6.37156 5.97803 5.85914C6.19395 5.70788 6.34328 5.47928 6.39498 5.22083C6.44669 4.96238 6.3968 4.69395 6.25569 4.47131L4.80333 2.25079C4.61111 1.97322 4.35481 1.52485 3.75678 1.61025C3.15876 1.69566 1.59961 2.57105 1.59961 4.49266C1.59961 6.41427 3.11604 8.7629 5.18778 10.834C7.25952 12.905 9.60892 14.3996 11.5098 14.3996C13.4107 14.3996 14.3291 12.6915 14.3931 12.2645C14.4572 11.8375 14.0301 11.3891 13.7524 11.1969Z" stroke="#828282" stroke-linejoin="round"/>
</svg>
