<svg width="20" height="20" viewBox="0 0 20 20" fill="none" xmlns="http://www.w3.org/2000/svg">
<path d="M9.55853 9.82042C9.55853 11.1753 8.44407 12.2893 7.04982 12.2893C5.65557 12.2893 4.54111 11.1753 4.54111 9.82042C4.54111 8.46558 5.65557 7.35156 7.04982 7.35156C8.44407 7.35156 9.55853 8.46558 9.55853 9.82042Z" stroke="#EE7D22" stroke-width="1.5"/>
<path d="M5.83432 15.673C5.83432 17.0278 4.71986 18.1418 3.32561 18.1418C1.93135 18.1418 0.816895 17.0278 0.816895 15.673C0.816895 14.3181 1.93135 13.2041 3.32561 13.2041C4.71986 13.2041 5.83432 14.3181 5.83432 15.673Z" stroke="#EE7D22" stroke-width="1.5"/>
<path d="M13.5367 15.673C13.5367 17.0278 12.4222 18.1418 11.028 18.1418C9.63372 18.1418 8.51926 17.0278 8.51926 15.673C8.51926 14.3181 9.63372 13.2041 11.028 13.2041C12.4222 13.2041 13.5367 14.3181 13.5367 15.673Z" stroke="#EE7D22" stroke-width="1.5"/>
<mask id="path-5-inside-1" fill="white">
<path fill-rule="evenodd" clip-rule="evenodd" d="M15.2235 5.93096C15.7435 5.40781 16.0643 4.6907 16.0643 3.89959C16.0643 2.29819 14.75 1 13.1288 1C12.386 1 11.7076 1.27252 11.1906 1.72187L11.1844 1.71542L6.9527 5.82003C11.1615 5.33802 11.5275 8.40581 11.1844 9.99995L15.2254 5.933L15.2235 5.93096Z"/>
</mask>
<path d="M15.2235 5.93096L14.5143 5.22597L13.8262 5.91818L14.5015 6.62286L15.2235 5.93096ZM11.1906 1.72187L10.4685 2.4137L11.1275 3.10152L11.8465 2.47666L11.1906 1.72187ZM11.1844 1.71542L11.9064 1.02359L11.2104 0.297081L10.4881 0.997615L11.1844 1.71542ZM6.9527 5.82003L6.25645 5.10223L4.14752 7.14783L7.06648 6.81353L6.9527 5.82003ZM11.1844 9.99995L10.2068 9.78954L9.48885 13.1251L11.8937 10.7048L11.1844 9.99995ZM15.2254 5.933L15.9348 6.63785L16.6226 5.94564L15.9474 5.2411L15.2254 5.933ZM15.0643 3.89959C15.0643 4.41419 14.8569 4.88125 14.5143 5.22597L15.9327 6.63596C16.6301 5.93436 17.0643 4.9672 17.0643 3.89959H15.0643ZM13.1288 2C14.2094 2 15.0643 2.86204 15.0643 3.89959H17.0643C17.0643 1.73434 15.2907 0 13.1288 0V2ZM11.8465 2.47666C12.1875 2.18032 12.6347 2 13.1288 2V0C12.1372 0 11.2277 0.364726 10.5346 0.96708L11.8465 2.47666ZM11.9126 1.03004L11.9064 1.02359L10.4623 2.40725L10.4685 2.4137L11.9126 1.03004ZM10.4881 0.997615L6.25645 5.10223L7.64895 6.53783L11.8806 2.43322L10.4881 0.997615ZM7.06648 6.81353C8.90598 6.60287 9.61749 7.17276 9.93108 7.6671C10.3132 8.26943 10.3476 9.13506 10.2068 9.78954L12.162 10.2104C12.3642 9.2707 12.3873 7.80537 11.6199 6.59576C10.7841 5.27818 9.20822 4.55518 6.83892 4.82652L7.06648 6.81353ZM11.8937 10.7048L15.9348 6.63785L14.5161 5.22815L10.475 9.29511L11.8937 10.7048ZM15.9474 5.2411L15.9455 5.23907L14.5015 6.62286L14.5035 6.6249L15.9474 5.2411Z" fill="#EE7D22" mask="url(#path-5-inside-1)"/>
<mask id="path-7-inside-2" fill="white">
<path fill-rule="evenodd" clip-rule="evenodd" d="M19.1453 11.8643C19.6739 11.3326 19.9999 10.6037 19.9999 9.79967C19.9999 8.17201 18.664 6.85254 17.0162 6.85254C16.2613 6.85254 15.5718 7.12951 15.0463 7.58619L15.0402 7.5798L10.7391 11.7517C15.0169 11.2618 15.3889 14.3799 15.0402 16.0002L19.1475 11.8665L19.1453 11.8643Z"/>
</mask>
<path d="M19.1453 11.8643L18.4361 11.1593L17.7482 11.8514L18.4233 12.5561L19.1453 11.8643ZM15.0463 7.58619L14.3242 8.27802L14.9832 8.96582L15.7022 8.341L15.0463 7.58619ZM15.0402 7.5798L15.7622 6.88797L15.0661 6.16146L14.3439 6.862L15.0402 7.5798ZM10.7391 11.7517L10.0429 11.0339L7.93393 13.0795L10.8529 12.7452L10.7391 11.7517ZM15.0402 16.0002L14.0626 15.7898L13.3446 19.1253L15.7495 16.705L15.0402 16.0002ZM19.1475 11.8665L19.8569 12.5714L20.5446 11.8793L19.8696 11.1747L19.1475 11.8665ZM18.9999 9.79967C18.9999 10.3272 18.7873 10.806 18.4361 11.1593L19.8546 12.5693C20.5605 11.8591 20.9999 10.8802 20.9999 9.79967H18.9999ZM17.0162 7.85254C18.1234 7.85254 18.9999 8.73587 18.9999 9.79967H20.9999C20.9999 7.60816 19.2047 5.85254 17.0162 5.85254V7.85254ZM15.7022 8.341C16.0517 8.03731 16.51 7.85254 17.0162 7.85254V5.85254C16.0125 5.85254 15.0919 6.2217 14.3904 6.83138L15.7022 8.341ZM15.7684 6.89436L15.7622 6.88797L14.3181 8.27163L14.3242 8.27802L15.7684 6.89436ZM14.3439 6.862L10.0429 11.0339L11.4354 12.4695L15.7364 8.2976L14.3439 6.862ZM10.8529 12.7452C12.7269 12.5306 13.4572 13.1111 13.7802 13.6203C14.1717 14.2375 14.2062 15.1222 14.0626 15.7898L16.0178 16.2106C16.2228 15.2578 16.2458 13.7734 15.469 12.5489C14.6238 11.2165 13.0291 10.4829 10.6253 10.7582L10.8529 12.7452ZM15.7495 16.705L19.8569 12.5714L18.4381 11.1617L14.3308 15.2953L15.7495 16.705ZM19.8696 11.1747L19.8674 11.1725L18.4233 12.5561L18.4254 12.5583L19.8696 11.1747Z" fill="#EE7D22" mask="url(#path-7-inside-2)"/>
</svg>
