<svg width="20" height="20" viewBox="0 0 20 20" fill="none" xmlns="http://www.w3.org/2000/svg">
<path d="M2.5 4.5C2.5 3.94772 2.94772 3.5 3.5 3.5H4.5C5.05228 3.5 5.5 3.94772 5.5 4.5V4.5C5.5 5.05228 5.05228 5.5 4.5 5.5H3.5C2.94772 5.5 2.5 5.05228 2.5 4.5V4.5Z" stroke="white" stroke-miterlimit="10" stroke-linecap="square" stroke-linejoin="round"/>
<path d="M8.5 4.5C8.5 3.94772 8.94772 3.5 9.5 3.5H16.5C17.0523 3.5 17.5 3.94772 17.5 4.5V4.5C17.5 5.05228 17.0523 5.5 16.5 5.5H9.5C8.94772 5.5 8.5 5.05228 8.5 4.5V4.5Z" stroke="white" stroke-miterlimit="10" stroke-linecap="square" stroke-linejoin="round"/>
<path d="M2.5 9.5C2.5 8.94772 2.94772 8.5 3.5 8.5H4.5C5.05228 8.5 5.5 8.94772 5.5 9.5V9.5C5.5 10.0523 5.05228 10.5 4.5 10.5H3.5C2.94772 10.5 2.5 10.0523 2.5 9.5V9.5Z" stroke="white" stroke-miterlimit="10" stroke-linecap="square" stroke-linejoin="round"/>
<path d="M8.5 9.5C8.5 8.94772 8.94772 8.5 9.5 8.5H16.5C17.0523 8.5 17.5 8.94772 17.5 9.5V9.5C17.5 10.0523 17.0523 10.5 16.5 10.5H9.5C8.94772 10.5 8.5 10.0523 8.5 9.5V9.5Z" stroke="white" stroke-miterlimit="10" stroke-linecap="square" stroke-linejoin="round"/>
<path d="M2.5 15.5C2.5 14.9477 2.94772 14.5 3.5 14.5H4.5C5.05228 14.5 5.5 14.9477 5.5 15.5V15.5C5.5 16.0523 5.05228 16.5 4.5 16.5H3.5C2.94772 16.5 2.5 16.0523 2.5 15.5V15.5Z" stroke="white" stroke-miterlimit="10" stroke-linecap="square" stroke-linejoin="round"/>
<path d="M8.5 15.5C8.5 14.9477 8.94772 14.5 9.5 14.5H16.5C17.0523 14.5 17.5 14.9477 17.5 15.5V15.5C17.5 16.0523 17.0523 16.5 16.5 16.5H9.5C8.94772 16.5 8.5 16.0523 8.5 15.5V15.5Z" stroke="white" stroke-miterlimit="10" stroke-linecap="square" stroke-linejoin="round"/>
</svg>
