<svg width="32" height="32" viewBox="0 0 32 32" fill="none" xmlns="http://www.w3.org/2000/svg">
<path d="M27.2002 13.3335C27.2002 22.6668 15.2002 30.6668 15.2002 30.6668C15.2002 30.6668 3.2002 22.6668 3.2002 13.3335C3.2002 10.1509 4.46448 7.09865 6.71491 4.84821C8.96535 2.59778 12.0176 1.3335 15.2002 1.3335C18.3828 1.3335 21.435 2.59778 23.6855 4.84821C25.9359 7.09865 27.2002 10.1509 27.2002 13.3335Z" stroke="#FFAB1B" stroke-width="1.5" stroke-linecap="round" stroke-linejoin="round"/>
<path d="M15.2002 17.3335C17.4093 17.3335 19.2002 15.5426 19.2002 13.3335C19.2002 11.1244 17.4093 9.3335 15.2002 9.3335C12.9911 9.3335 11.2002 11.1244 11.2002 13.3335C11.2002 15.5426 12.9911 17.3335 15.2002 17.3335Z" stroke="#FFAB1B" stroke-width="1.5" stroke-linecap="round" stroke-linejoin="round"/>
</svg>
