<svg width="62" height="34" viewBox="0 0 62 34" fill="none" xmlns="http://www.w3.org/2000/svg">
<rect x="0.5" y="0.5" width="61" height="33" rx="3.5" fill="white" stroke="#E0E0E0"/>
<path d="M46.9998 17C46.9998 22.2826 42.7331 26.6 37.3998 26.6C32.1173 26.6 27.7998 22.2826 27.7998 17C27.7998 11.7175 32.0665 7.40002 37.349 7.40002C42.7331 7.40002 46.9998 11.7175 46.9998 17Z" fill="#FFB600"/>
<path d="M37.3998 7.40002C42.6823 7.40002 46.9998 11.7175 46.9998 17C46.9998 22.2826 42.7331 26.6 37.3998 26.6C32.1173 26.6 27.7998 22.2826 27.7998 17" fill="#F7981D"/>
<path d="M37.3999 7.40002C42.6824 7.40002 46.9999 11.7175 46.9999 17C46.9999 22.2826 42.7332 26.6 37.3999 26.6" fill="#FF8500"/>
<path d="M24.4984 7.40002C19.2667 7.45082 15 11.7175 15 17C15 22.2826 19.2667 26.6 24.6 26.6C27.0889 26.6 29.3238 25.6349 31.0508 24.1111C31.4063 23.8064 31.7111 23.4508 32.0159 23.0953H30.0349C29.781 22.7905 29.527 22.4349 29.3238 22.1302H32.727C32.9302 21.8254 33.1333 21.4699 33.2857 21.1143H28.7651C28.6127 20.8095 28.4603 20.454 28.3587 20.0984H33.6413C33.946 19.1334 34.1492 18.1175 34.1492 17.0508C34.1492 16.3397 34.0476 15.6794 33.946 15.0191H28.054C28.1048 14.6635 28.2063 14.3588 28.3079 14.0032H33.5905C33.4889 13.6476 33.3365 13.2921 33.1841 12.9873H28.7143C28.8667 12.6318 29.0698 12.327 29.273 11.9715H32.6762C32.473 11.6159 32.219 11.2603 31.9143 10.9556H30.0349C30.3397 10.6 30.6444 10.2953 31 9.9905C29.3238 8.4159 27.0381 7.50161 24.5492 7.50161C24.5492 7.40002 24.5492 7.40002 24.4984 7.40002Z" fill="#FF5050"/>
<path d="M15 17.0001C15 22.2826 19.2667 26.6001 24.6 26.6001C27.0889 26.6001 29.3238 25.635 31.0508 24.1112C31.4063 23.8064 31.7111 23.4509 32.0159 23.0953H30.0349C29.781 22.7905 29.527 22.435 29.3238 22.1302H32.727C32.9302 21.8255 33.1333 21.4699 33.2857 21.1144H28.7651C28.6127 20.8096 28.4603 20.454 28.3587 20.0985H33.6413C33.946 19.1334 34.1492 18.1175 34.1492 17.0509C34.1492 16.3397 34.0476 15.6794 33.946 15.0191H28.054C28.1048 14.6636 28.2063 14.3588 28.3079 14.0032H33.5905C33.4889 13.6477 33.3365 13.2921 33.1841 12.9874H28.7143C28.8667 12.6318 29.0698 12.327 29.273 11.9715H32.6762C32.473 11.6159 32.219 11.2604 31.9143 10.9556H30.0349C30.3397 10.6001 30.6444 10.2953 31 9.99054C29.3238 8.41593 27.0381 7.50165 24.5492 7.50165H24.4984" fill="#E52836"/>
<path d="M24.6001 26.6001C27.089 26.6001 29.3239 25.635 31.0509 24.1112C31.4065 23.8064 31.7112 23.4509 32.016 23.0953H30.035C29.7811 22.7905 29.5271 22.435 29.3239 22.1302H32.7271C32.9303 21.8255 33.1335 21.4699 33.2858 21.1144H28.7652C28.6128 20.8096 28.4604 20.454 28.3589 20.0985H33.6414C33.9462 19.1334 34.1493 18.1175 34.1493 17.0509C34.1493 16.3397 34.0477 15.6794 33.9462 15.0191H28.0541C28.1049 14.6636 28.2065 14.3588 28.3081 14.0032H33.5906C33.489 13.6477 33.3366 13.2921 33.1843 12.9874H28.7144C28.8668 12.6318 29.07 12.327 29.2731 11.9715H32.6763C32.4731 11.6159 32.2192 11.2604 31.9144 10.9556H30.035C30.3398 10.6001 30.6446 10.2953 31.0001 9.99054C29.3239 8.41593 27.0382 7.50165 24.5493 7.50165H24.4985" fill="#CB2026"/>
<path d="M28.0028 19.4381L28.1552 18.5746C28.1044 18.5746 28.0028 18.6254 27.9012 18.6254C27.5457 18.6254 27.4949 18.4222 27.5457 18.3206L27.8504 16.5429H28.4092L28.5615 15.5778H28.0536L28.1552 14.9683H27.1393C27.1393 14.9683 26.5298 18.3206 26.5298 18.727C26.5298 19.3365 26.8853 19.5905 27.3425 19.5905C27.6472 19.5905 27.9012 19.4889 28.0028 19.4381Z" fill="white"/>
<path d="M28.3584 17.8128C28.3584 19.235 29.3235 19.5906 30.1362 19.5906C30.8981 19.5906 31.2028 19.4382 31.2028 19.4382L31.406 18.4731C31.406 18.4731 30.8473 18.7271 30.3394 18.7271C29.2219 18.7271 29.4251 17.9144 29.4251 17.9144H31.5076C31.5076 17.9144 31.66 17.254 31.66 17.0001C31.66 16.3398 31.3044 15.5271 30.187 15.5271C29.1203 15.4255 28.3584 16.5429 28.3584 17.8128ZM30.1362 16.3398C30.6949 16.3398 30.5933 17.0001 30.5933 17.0509H29.4759C29.4759 17.0001 29.5774 16.3398 30.1362 16.3398Z" fill="white"/>
<path d="M36.5871 19.4381L36.7903 18.3207C36.7903 18.3207 36.2823 18.5747 35.9268 18.5747C35.2157 18.5747 34.9109 18.0159 34.9109 17.4064C34.9109 16.1874 35.5204 15.527 36.2316 15.527C36.7395 15.527 37.1458 15.8318 37.1458 15.8318L37.2982 14.7651C37.2982 14.7651 36.6887 14.5112 36.13 14.5112C34.9617 14.5112 33.7935 15.527 33.7935 17.4572C33.7935 18.727 34.403 19.5905 35.622 19.5905C36.0284 19.5905 36.5871 19.4381 36.5871 19.4381Z" fill="white"/>
<path d="M22.4155 15.4255C21.7044 15.4255 21.1965 15.6287 21.1965 15.6287L21.0441 16.4922C21.0441 16.4922 21.5012 16.289 22.1615 16.289C22.5171 16.289 22.8219 16.3398 22.8219 16.6446C22.8219 16.8478 22.7711 16.8986 22.7711 16.8986C22.7711 16.8986 22.4663 16.8986 22.3139 16.8986C21.4504 16.8986 20.4854 17.2541 20.4854 18.4224C20.4854 19.3366 21.0949 19.5398 21.4504 19.5398C22.1615 19.5398 22.4663 19.0827 22.5171 19.0827L22.4663 19.489H23.3806L23.7869 16.6954C23.7869 15.4763 22.7711 15.4255 22.4155 15.4255ZM22.6187 17.7113C22.6187 17.8636 22.5171 18.6763 21.9076 18.6763C21.6028 18.6763 21.5012 18.4224 21.5012 18.27C21.5012 18.016 21.6536 17.6605 22.4155 17.6605C22.5679 17.7113 22.6187 17.7113 22.6187 17.7113Z" fill="white"/>
<path d="M24.7522 19.5398C25.0062 19.5398 26.276 19.5906 26.276 18.2191C26.276 16.9493 25.057 17.2033 25.057 16.6953C25.057 16.4414 25.2602 16.3398 25.6157 16.3398C25.7681 16.3398 26.3268 16.3906 26.3268 16.3906L26.4792 15.4763C26.4792 15.4763 26.1237 15.3747 25.5141 15.3747C24.7522 15.3747 23.9903 15.6795 23.9903 16.6953C23.9903 17.8636 25.2602 17.762 25.2602 18.2191C25.2602 18.5239 24.9046 18.5747 24.6507 18.5747C24.1935 18.5747 23.7364 18.4223 23.7364 18.4223L23.584 19.3366C23.6348 19.4382 23.8887 19.5398 24.7522 19.5398Z" fill="white"/>
<path d="M45.0188 14.6128L44.8156 15.9842C44.8156 15.9842 44.4092 15.4763 43.8505 15.4763C42.9362 15.4763 42.1235 16.5937 42.1235 17.9144C42.1235 18.7271 42.5299 19.5906 43.3934 19.5906C44.0029 19.5906 44.3585 19.1842 44.3585 19.1842L44.3077 19.5398H45.3235L46.0854 14.6636L45.0188 14.6128ZM44.5616 17.3049C44.5616 17.8636 44.3077 18.5747 43.7489 18.5747C43.3934 18.5747 43.1902 18.2699 43.1902 17.762C43.1902 16.9493 43.5458 16.4414 44.0029 16.4414C44.3585 16.4414 44.5616 16.6953 44.5616 17.3049Z" fill="white"/>
<path d="M16.8791 19.489L17.4887 15.8318L17.5903 19.489H18.3014L19.622 15.8318L19.0633 19.489H20.1299L20.9426 14.6128H19.2664L18.2506 17.6096L18.1998 14.6128H16.7268L15.9141 19.489H16.8791Z" fill="white"/>
<path d="M32.6253 19.4889C32.93 17.8128 32.9808 16.4413 33.6919 16.6953C33.7935 16.035 33.9459 15.781 34.0475 15.527C34.0475 15.527 33.9967 15.527 33.8443 15.527C33.3872 15.527 33.0316 16.1366 33.0316 16.1366L33.1332 15.5778H32.1681L31.5078 19.5397H32.6253V19.4889Z" fill="white"/>
<path d="M38.9238 15.4255C38.2127 15.4255 37.7048 15.6287 37.7048 15.6287L37.5524 16.4922C37.5524 16.4922 38.0095 16.289 38.6698 16.289C39.0254 16.289 39.3302 16.3398 39.3302 16.6446C39.3302 16.8478 39.2794 16.8986 39.2794 16.8986C39.2794 16.8986 38.9746 16.8986 38.8222 16.8986C37.9587 16.8986 36.9937 17.2541 36.9937 18.4224C36.9937 19.3366 37.6032 19.5398 37.9587 19.5398C38.6698 19.5398 38.9746 19.0827 39.0254 19.0827L38.9746 19.489H39.8889L40.2952 16.6954C40.346 15.4763 39.2794 15.4255 38.9238 15.4255ZM39.1778 17.7113C39.1778 17.8636 39.0762 18.6763 38.4667 18.6763C38.1619 18.6763 38.0603 18.4224 38.0603 18.27C38.0603 18.016 38.2127 17.6605 38.9746 17.6605C39.127 17.7113 39.127 17.7113 39.1778 17.7113Z" fill="white"/>
<path d="M41.1585 19.4889C41.4632 17.8128 41.514 16.4413 42.2251 16.6953C42.3267 16.035 42.4791 15.781 42.5807 15.527C42.5807 15.527 42.5299 15.527 42.3775 15.527C41.9204 15.527 41.5648 16.1366 41.5648 16.1366L41.6664 15.5778H40.7013L40.041 19.5397H41.1585V19.4889Z" fill="white"/>
<path d="M26.4282 18.727C26.4282 19.3365 26.7838 19.5905 27.2409 19.5905C27.5965 19.5905 27.9012 19.4889 28.0028 19.4381L28.1552 18.5746C28.1044 18.5746 28.0028 18.6254 27.9012 18.6254C27.5457 18.6254 27.4949 18.4222 27.5457 18.3206L27.8504 16.5429H28.4092L28.5616 15.5778H28.0536L28.1552 14.9683" fill="#DCE5E5"/>
<path d="M28.8662 17.8128C28.8662 19.235 29.3234 19.5906 30.1361 19.5906C30.898 19.5906 31.2027 19.4382 31.2027 19.4382L31.4059 18.4731C31.4059 18.4731 30.8472 18.7271 30.3392 18.7271C29.2218 18.7271 29.4249 17.9144 29.4249 17.9144H31.5075C31.5075 17.9144 31.6599 17.254 31.6599 17.0001C31.6599 16.3398 31.3043 15.5271 30.1868 15.5271C29.1202 15.4255 28.8662 16.5429 28.8662 17.8128ZM30.1361 16.3398C30.6948 16.3398 30.7964 17.0001 30.7964 17.0509H29.4757C29.4757 17.0001 29.5773 16.3398 30.1361 16.3398Z" fill="#DCE5E5"/>
<path d="M36.587 19.4381L36.7902 18.3207C36.7902 18.3207 36.2822 18.5747 35.9267 18.5747C35.2156 18.5747 34.9108 18.0159 34.9108 17.4064C34.9108 16.1874 35.5203 15.527 36.2314 15.527C36.7394 15.527 37.1457 15.8318 37.1457 15.8318L37.2981 14.7651C37.2981 14.7651 36.6886 14.5112 36.1298 14.5112C34.9616 14.5112 34.3013 15.527 34.3013 17.4572C34.3013 18.727 34.4029 19.5905 35.6219 19.5905C36.0283 19.5905 36.587 19.4381 36.587 19.4381Z" fill="#DCE5E5"/>
<path d="M21.0441 16.5429C21.0441 16.5429 21.5012 16.3397 22.1615 16.3397C22.5171 16.3397 22.8219 16.3905 22.8219 16.6953C22.8219 16.8985 22.7711 16.9493 22.7711 16.9493C22.7711 16.9493 22.4663 16.9493 22.3139 16.9493C21.4504 16.9493 20.4854 17.3048 20.4854 18.4731C20.4854 19.3874 21.0949 19.5905 21.4504 19.5905C22.1615 19.5905 22.4663 19.1334 22.5171 19.1334L22.4663 19.5397H23.3806L23.7869 16.7461C23.7869 15.5778 22.7711 15.527 22.3647 15.527L21.0441 16.5429ZM23.1266 17.7112C23.1266 17.8635 22.5171 18.6762 21.9076 18.6762C21.6028 18.6762 21.5012 18.4223 21.5012 18.2699C21.5012 18.0159 21.6536 17.6604 22.4155 17.6604C22.5679 17.7112 23.1266 17.7112 23.1266 17.7112Z" fill="#DCE5E5"/>
<path d="M23.6348 19.4382C23.6348 19.4382 23.9395 19.5398 24.803 19.5398C25.057 19.5398 26.3268 19.5906 26.3268 18.2191C26.3268 16.9493 25.1078 17.2033 25.1078 16.6953C25.1078 16.4414 25.311 16.3398 25.6665 16.3398C25.8189 16.3398 26.3776 16.3906 26.3776 16.3906L26.53 15.4763C26.53 15.4763 26.1744 15.3747 25.5649 15.3747C24.803 15.3747 24.5491 15.6795 24.5491 16.6953C24.5491 17.8636 25.311 17.762 25.311 18.2191C25.311 18.5239 24.9554 18.5747 24.7014 18.5747" fill="#DCE5E5"/>
<path d="M44.8157 15.9842C44.8157 15.9842 44.4094 15.4763 43.8507 15.4763C42.9364 15.4763 42.6316 16.5937 42.6316 17.9144C42.6316 18.7271 42.53 19.5906 43.3935 19.5906C44.003 19.5906 44.3586 19.1842 44.3586 19.1842L44.3078 19.5398H45.3237L46.0856 14.6636L44.8157 15.9842ZM44.7649 17.3048C44.7649 17.8636 44.3078 18.5747 43.7491 18.5747C43.3935 18.5747 43.1903 18.2699 43.1903 17.762C43.1903 16.9493 43.5459 16.4414 44.003 16.4414C44.3586 16.4414 44.7649 16.6953 44.7649 17.3048Z" fill="#DCE5E5"/>
<path d="M16.8791 19.489L17.4887 15.8318L17.5903 19.489H18.3014L19.622 15.8318L19.0633 19.489H20.1299L20.9426 14.6128H19.6728L18.2506 17.6096L18.1998 14.6128H17.641L15.9141 19.489H16.8791Z" fill="#DCE5E5"/>
<path d="M31.5586 19.4889H32.6253C32.93 17.8128 32.9808 16.4413 33.6919 16.6953C33.7935 16.035 33.9459 15.781 34.0475 15.527C34.0475 15.527 33.9967 15.527 33.8443 15.527C33.3872 15.527 33.0316 16.1366 33.0316 16.1366L33.1332 15.5778" fill="#DCE5E5"/>
<path d="M37.5524 16.5429C37.5524 16.5429 38.0095 16.3397 38.6698 16.3397C39.0254 16.3397 39.3302 16.3905 39.3302 16.6953C39.3302 16.8985 39.2794 16.9493 39.2794 16.9493C39.2794 16.9493 38.9746 16.9493 38.8222 16.9493C37.9587 16.9493 36.9937 17.3048 36.9937 18.4731C36.9937 19.3874 37.6032 19.5905 37.9587 19.5905C38.6698 19.5905 38.9746 19.1334 39.0254 19.1334L38.9746 19.5397H39.8889L40.2952 16.7461C40.2952 15.5778 39.2794 15.527 38.873 15.527L37.5524 16.5429ZM39.6349 17.7112C39.6349 17.8635 39.0254 18.6762 38.4159 18.6762C38.1111 18.6762 38.0095 18.4223 38.0095 18.2699C38.0095 18.0159 38.1619 17.6604 38.9238 17.6604C39.127 17.7112 39.6349 17.7112 39.6349 17.7112Z" fill="#DCE5E5"/>
<path d="M40.0918 19.4889H41.1585C41.4632 17.8128 41.514 16.4413 42.2251 16.6953C42.3267 16.035 42.4791 15.781 42.5807 15.527C42.5807 15.527 42.5299 15.527 42.3775 15.527C41.9204 15.527 41.5648 16.1366 41.5648 16.1366L41.6664 15.5778" fill="#DCE5E5"/>
</svg>
