<svg width="24" height="24" viewBox="0 0 24 24" fill="none" xmlns="http://www.w3.org/2000/svg">
<path d="M20.6399 18.77H3.3599C2.82999 18.77 2.3999 19.1947 2.3999 19.7181C2.3999 20.2415 2.82999 20.6663 3.3599 20.6663H20.6399C21.1698 20.6663 21.5999 20.2415 21.5999 19.7181C21.5999 19.1947 21.1698 18.77 20.6399 18.77ZM3.3599 5.4959H20.6399C21.1698 5.4959 21.5999 5.07116 21.5999 4.54776C21.5999 4.02435 21.1698 3.59961 20.6399 3.59961H3.3599C2.82999 3.59964 2.3999 4.02439 2.3999 4.54779C2.3999 5.07116 2.82999 5.4959 3.3599 5.4959ZM20.6399 11.1848H3.3599C2.82999 11.1848 2.3999 11.6096 2.3999 12.133C2.3999 12.6564 2.82999 13.0811 3.3599 13.0811H20.6399C21.1698 13.0811 21.5999 12.6563 21.5999 12.133C21.5999 11.6096 21.1698 11.1848 20.6399 11.1848Z" fill="#4F4F4F"/>
</svg>
