<svg width="62" height="34" viewBox="0 0 62 34" fill="none" xmlns="http://www.w3.org/2000/svg">
<rect x="0.5" y="0.5" width="61" height="33" rx="3.5" fill="white" stroke="#E0E0E0"/>
<g clip-path="url(#clip0)">
<path d="M40.2014 14.7095C39.4404 14.7095 38.8315 14.9125 38.3242 15.0139L38.172 16.1809C38.4256 16.0794 39.1359 15.8764 39.7448 15.8257C40.3536 15.8257 40.7088 15.9272 40.6073 16.4853C38.7808 16.4853 37.5631 16.8404 37.3094 18.0581C36.9543 20.0876 39.1867 20.1383 40.0492 19.2251L39.9477 19.7832H41.5713L42.2816 16.4853C42.5353 15.1154 41.3176 14.6588 40.2014 14.7095ZM40.3029 18.1088C40.2014 18.5147 39.8463 18.667 39.4404 18.7177C39.0852 18.7177 38.7808 18.5147 38.9837 18.1088C39.1867 17.8044 39.6433 17.8044 39.9985 17.8044C40.0999 17.8044 40.2522 17.8044 40.4044 17.8044C40.3536 17.7537 40.3029 17.9566 40.3029 18.1088Z" fill="#32A6CE"/>
<path d="M38.172 16.1808C38.4256 16.0793 39.136 15.8763 39.7448 15.8256C40.3536 15.8256 40.7088 15.9271 40.6073 16.4852C38.7808 16.4852 37.5631 16.8403 37.3094 18.058C36.9543 20.0875 39.1867 20.1382 40.0492 19.2249L39.9477 19.783H41.5713L42.2816 16.4852C42.586 15.1153 41.3176 14.7601 40.2014 14.7601L38.172 16.1808ZM40.3029 18.1087C40.2014 18.5146 39.8463 18.6668 39.4404 18.7176C39.0852 18.7176 38.7808 18.5146 38.9837 18.1087C39.1867 17.8043 39.6433 17.8043 39.9985 17.8043C40.0999 17.8043 40.2522 17.8043 40.4044 17.8043C40.3536 17.7536 40.3029 17.9565 40.3029 18.1087Z" fill="#1A80AD"/>
<path d="M43.6512 13.1874L42.332 19.7832H43.9556L45.3255 13.1874H43.6512Z" fill="#32A6CE"/>
<path d="M44.8181 13.1874L42.332 19.7832H43.9556L45.3255 13.1874H43.6512H44.8181Z" fill="#1A80AD"/>
<path d="M36.0919 13.1874H33.0984L31.7793 19.7832H33.5551L34.0117 17.7537H35.2801C36.4978 17.7537 37.5125 17.0434 37.7662 15.775C38.0199 14.3036 36.9544 13.1874 36.0919 13.1874ZM36.0412 15.4706C35.9397 15.9272 35.4831 16.2316 35.0264 16.2316H34.2146L34.5698 14.7095H35.4323C35.889 14.7095 36.1426 15.014 36.0412 15.4706Z" fill="#32A6CE"/>
<path d="M36.0919 13.1874H34.0624L31.7285 19.7832H33.5043L33.9609 17.7537H35.2293C36.447 17.7537 37.4617 17.0434 37.7154 15.775C38.0198 14.3036 36.9544 13.1874 36.0919 13.1874ZM36.0411 15.4706C35.9396 15.9272 35.483 16.2316 35.0264 16.2316H34.2146L34.5698 14.7095H35.4323C35.8889 14.7095 36.1426 15.014 36.0411 15.4706Z" fill="#1A80AD"/>
<path d="M24.3717 14.7095C23.6107 14.7095 23.0018 14.9125 22.5452 15.0139L22.393 16.1809C22.5959 16.0794 23.357 15.8764 23.9658 15.8257C24.5747 15.8257 24.9298 15.9272 24.8283 16.4853C23.0526 16.4853 21.8349 16.8404 21.5812 18.0581C21.2261 20.0876 23.4077 20.1383 24.2702 19.2251L24.1688 19.7832H25.7923L26.5027 16.4853C26.7563 15.1154 25.4879 14.6588 24.3717 14.7095ZM24.5239 18.1088C24.4225 18.5147 24.0673 18.667 23.6614 18.7177C23.3063 18.7177 23.0018 18.5147 23.2555 18.1088C23.4585 17.8044 23.9151 17.8044 24.2195 17.8044C24.3717 17.8044 24.4732 17.8044 24.6254 17.8044C24.5747 17.7537 24.5239 17.9566 24.5239 18.1088Z" fill="#21789E"/>
<path d="M22.4433 16.1808C22.6462 16.0793 23.4073 15.8763 24.0161 15.8256C24.625 15.8256 24.9801 15.9271 24.8786 16.4852C23.1029 16.4852 21.8852 16.8403 21.6315 18.058C21.2764 20.0875 23.458 20.1382 24.3205 19.2249L24.1683 19.783H25.7919L26.5022 16.4852C26.8066 15.1153 25.5382 14.7601 24.422 14.7601L22.4433 16.1808ZM24.5235 18.1087C24.422 18.5146 24.0669 18.6668 23.661 18.7176C23.3058 18.7176 23.0014 18.5146 23.2551 18.1087C23.458 17.8043 23.9146 17.8043 24.2191 17.8043C24.3713 17.8043 24.4728 17.8043 24.625 17.8043C24.5742 17.7536 24.5235 17.9565 24.5235 18.1087Z" fill="#1A5B80"/>
<path d="M27.1622 14.7095H28.7857L29.0394 17.5508L30.663 14.7095H32.3373L28.4813 21.8126H26.6548L27.8217 19.6817L27.1622 14.7095Z" fill="#21789E"/>
<path d="M28.7857 14.811L29.0394 17.6015L30.663 14.7095H32.3373L28.4813 21.8126H26.6548L27.8217 19.7324" fill="#1A5B80"/>
<path d="M20.3633 13.1874H17.3191L16 19.7832H17.7758L18.2324 17.7537H19.5008C20.7185 17.7537 21.7332 17.0434 21.9869 15.775C22.2913 14.3036 21.2259 13.1874 20.3633 13.1874ZM20.3126 15.4706C20.2111 15.9272 19.7545 16.2316 19.2979 16.2316H18.4861L18.8412 14.7095H19.7038C20.1604 14.7095 20.4141 15.014 20.3126 15.4706Z" fill="#21789E"/>
<path d="M20.3633 13.1874H18.9935L16 19.7832H17.7758L18.2324 17.7537H19.5008C20.7185 17.7537 21.7332 17.0434 21.9869 15.775C22.2913 14.3036 21.2259 13.1874 20.3633 13.1874ZM20.3126 15.4706C20.2111 15.9272 19.7545 16.2316 19.2979 16.2316H18.4861L18.8412 14.7095H19.7038C20.1604 14.7095 20.4141 15.014 20.3126 15.4706Z" fill="#1A5B80"/>
<path d="M24.0673 16.4852C22.6974 16.5867 21.7842 16.9926 21.5812 18.0073C21.2261 20.0368 23.4077 20.0875 24.2702 19.1743L24.1688 19.7831H25.7923L26.046 18.5654L24.0673 16.4852ZM24.5239 18.1088C24.4225 18.5147 24.0673 18.6669 23.6614 18.7176C23.3063 18.7176 23.0018 18.5147 23.2555 18.1088C23.4585 17.8044 23.9151 17.8044 24.2195 17.8044C24.3717 17.8044 24.4732 17.8044 24.6254 17.8044C24.5747 17.7536 24.5239 17.9566 24.5239 18.1088Z" fill="#06435E"/>
<path d="M29.141 17.5L29.0396 17.6523L30.105 18.667L32.3374 14.7095H30.6631L29.141 17.5Z" fill="#06435E"/>
<path d="M17.7759 19.7831L18.2325 17.7537L16.1523 19.7831H17.7759Z" fill="#06435E"/>
<path d="M33.5039 19.783L33.9606 17.6521V17.7028L31.8804 19.783H33.5039Z" fill="#2273AA"/>
<path d="M39.8458 16.4852C38.4759 16.5867 37.5627 16.9926 37.3597 18.0073C37.0046 20.0368 39.237 20.0875 40.0995 19.1743L39.9473 19.7831H41.5709L41.8245 18.5654L39.8458 16.4852ZM40.3024 18.1088C40.201 18.5147 39.8458 18.6669 39.4399 18.7176C39.0848 18.7176 38.7804 18.5147 38.9833 18.1088C39.1862 17.8044 39.6429 17.8044 39.998 17.8044C40.0995 17.8044 40.2517 17.8044 40.4039 17.8044C40.3532 17.7536 40.3024 17.9566 40.3024 18.1088Z" fill="#2273AA"/>
<path d="M43.499 16.7896L42.332 19.7831H43.9556L44.4122 17.7536L43.499 16.7896Z" fill="#2273AA"/>
<path d="M45.6809 14.2529V13.5426H45.4272V13.4411H46.0868V13.5426H45.8331V14.2529H45.6809Z" fill="#32A6CE"/>
<path d="M46.1885 14.2528V13.4411H46.3407L46.5436 13.9992C46.5436 14.0499 46.5944 14.1006 46.5944 14.1006C46.5944 14.0499 46.5944 14.0499 46.6451 13.9484L46.848 13.3903H47.0003V14.2021H46.8988V13.4918L46.6451 14.2021H46.4929L46.2392 13.4918V14.2021H46.1885V14.2528Z" fill="#32A6CE"/>
</g>
<defs>
<clipPath id="clip0">
<rect x="16" y="2" width="31" height="31" fill="white"/>
</clipPath>
</defs>
</svg>
