<svg width="20" height="20" viewBox="0 0 20 20" fill="none" xmlns="http://www.w3.org/2000/svg">
<g clip-path="url(#clip0)">
<path d="M17.8448 0H13.217C12.2011 0 10.8424 0.562744 10.1242 1.28113L0.629272 10.7759C0.223389 11.1816 0 11.7227 0 12.2997C0 12.8766 0.223541 13.4177 0.629272 13.8234L6.17645 19.3707C6.58218 19.7765 7.12326 20 7.7002 20C8.27698 20 8.81821 19.7765 9.22409 19.3707L18.7189 9.87579C19.4373 9.15756 20 7.79892 20 6.78299V2.15485C19.9998 0.966644 19.0331 0 17.8448 0ZM18.8281 6.78299C18.8281 7.48962 18.3899 8.54767 17.8903 9.04724L8.39539 18.542C8.21091 18.7265 7.96402 18.8281 7.7002 18.8281C7.43637 18.8281 7.18964 18.7265 7.00516 18.5422L1.45798 12.9947C1.2735 12.8102 1.17188 12.5633 1.17188 12.2997C1.17188 12.0358 1.27335 11.7889 1.45782 11.6046L10.9528 2.10968C11.4523 1.61011 12.5104 1.17188 13.217 1.17188H17.8448C18.387 1.17188 18.828 1.61285 18.8281 2.15485V6.78299Z" fill="#1A468F"/>
<path d="M16.3074 3.14062C16.1531 3.14062 16.0019 3.20319 15.8929 3.31213C15.784 3.42108 15.7214 3.5723 15.7214 3.72656C15.7214 3.88098 15.784 4.03174 15.8929 4.14069C16.0019 4.25009 16.1531 4.3125 16.3074 4.3125C16.4616 4.3125 16.6124 4.25009 16.7215 4.14069C16.8307 4.03174 16.8933 3.88052 16.8933 3.72656C16.8933 3.5723 16.8307 3.42108 16.7215 3.31213C16.6124 3.20319 16.4616 3.14062 16.3074 3.14062Z" fill="#1A468F"/>
</g>
<defs>
<clipPath id="clip0">
<path d="M0 0H20V20H0V0Z" fill="white"/>
</clipPath>
</defs>
</svg>
