<svg width="20" height="20" viewBox="0 0 20 20" fill="none" xmlns="http://www.w3.org/2000/svg">
<path fill-rule="evenodd" clip-rule="evenodd" d="M8.5 3C5.46243 3 3 5.46243 3 8.5C3 11.5376 5.46243 14 8.5 14C10.1426 14 11.6166 13.2805 12.6251 12.1379C13.4811 11.168 14 9.89521 14 8.5C14 5.46243 11.5376 3 8.5 3ZM2 8.5C2 4.91015 4.91015 2 8.5 2C12.0899 2 15 4.91015 15 8.5C15 9.96958 14.5118 11.3261 13.6892 12.4149L17.8336 16.1276C18.0393 16.3118 18.0567 16.6279 17.8724 16.8336C17.6882 17.0393 17.3721 17.0567 17.1664 16.8724L13.0271 13.1643C11.8571 14.2999 10.2601 15 8.5 15C4.91015 15 2 12.0899 2 8.5Z" fill="#333333"/>
</svg>
