<svg width="14" height="20" viewBox="0 0 14 20" fill="none" xmlns="http://www.w3.org/2000/svg">
<path d="M11.2437 0H2.75598C1.5231 0 0.52002 1.00308 0.52002 2.23596V17.764C0.52002 18.9969 1.5231 20 2.75598 20H11.2436C12.4765 20 13.4795 18.9969 13.4795 17.764V2.23596C13.4796 1.00308 12.4766 0 11.2437 0ZM1.96233 4.08673H12.0373V5.44269H1.96233V4.08673ZM2.75598 1.44231H11.2436C11.6812 1.44231 12.0372 1.79837 12.0372 2.23596V2.64452H1.96233V2.23596C1.96233 1.79837 2.31838 1.44231 2.75598 1.44231ZM11.2437 18.5577H2.75598C2.31838 18.5577 1.96233 18.2016 1.96233 17.764V6.885H12.0373V17.764C12.0373 18.2016 11.6813 18.5577 11.2437 18.5577Z" fill="#4F4F4F"/>
<path d="M10.5931 8.82715H8.99658V10.4237H10.5931V8.82715Z" fill="#4F4F4F"/>
<path d="M7.7982 8.82715H6.20166V10.4237H7.7982V8.82715Z" fill="#4F4F4F"/>
<path d="M5.00279 8.82715H3.40625V10.4237H5.00279V8.82715Z" fill="#4F4F4F"/>
<path d="M10.5931 12H8.99658V13.5965H10.5931V12Z" fill="#4F4F4F"/>
<path d="M7.7982 12H6.20166V13.5965H7.7982V12Z" fill="#4F4F4F"/>
<path d="M5.00279 12H3.40625V13.5965H5.00279V12Z" fill="#4F4F4F"/>
<path d="M10.5931 15.1733H8.99658V16.7699H10.5931V15.1733Z" fill="#4F4F4F"/>
<path d="M7.7982 15.1733H6.20166V16.7699H7.7982V15.1733Z" fill="#4F4F4F"/>
<path d="M5.00279 15.1733H3.40625V16.7699H5.00279V15.1733Z" fill="#4F4F4F"/>
</svg>
