<svg width="18" height="18" viewBox="0 0 18 18" fill="none" xmlns="http://www.w3.org/2000/svg">
<path d="M17.4843 8.86546C17.1978 8.86546 16.9686 9.09467 16.9686 9.38117V14.0722C16.9686 15.3481 15.9295 16.3833 14.6575 16.3833H3.34253C2.06664 16.3833 1.03141 15.3442 1.03141 14.0722V9.30477C1.03141 9.01826 0.802207 8.78906 0.515705 8.78906C0.229202 8.78906 0 9.01826 0 9.30477V14.0722C0 15.9172 1.50127 17.4147 3.34253 17.4147H14.6575C16.5025 17.4147 18 15.9134 18 14.0722V9.38117C18 9.09849 17.7708 8.86546 17.4843 8.86546Z" fill="#4F4F4F"/>
<path d="M8.63688 13.3194C8.7362 13.4188 8.8699 13.4722 8.99978 13.4722C9.12966 13.4722 9.26336 13.4226 9.36268 13.3194L12.6403 10.0418C12.8427 9.83938 12.8427 9.51468 12.6403 9.31222C12.4378 9.10976 12.1131 9.10976 11.9106 9.31222L9.51548 11.7112V1.24813C9.51548 0.961624 9.28628 0.732422 8.99978 0.732422C8.71328 0.732422 8.48407 0.961624 8.48407 1.24813V11.7112L6.08509 9.31222C5.88263 9.10976 5.55792 9.10976 5.35546 9.31222C5.153 9.51468 5.153 9.83938 5.35546 10.0418L8.63688 13.3194Z" fill="#4F4F4F"/>
</svg>
