<svg width="11" height="11" viewBox="0 0 11 11" fill="none" xmlns="http://www.w3.org/2000/svg">
<path fill-rule="evenodd" clip-rule="evenodd" d="M10.3536 10.3536C10.1583 10.5488 9.84171 10.5488 9.64645 10.3536L0.646446 1.35355C0.451184 1.15829 0.451184 0.841709 0.646446 0.646446C0.841709 0.451184 1.15829 0.451184 1.35355 0.646446L10.3536 9.64645C10.5488 9.84171 10.5488 10.1583 10.3536 10.3536Z" fill="#828282"/>
<path fill-rule="evenodd" clip-rule="evenodd" d="M0.646447 10.3536C0.451184 10.1583 0.451184 9.84171 0.646447 9.64645L9.64645 0.646446C9.84171 0.451184 10.1583 0.451184 10.3536 0.646446C10.5488 0.841709 10.5488 1.15829 10.3536 1.35355L1.35355 10.3536C1.15829 10.5488 0.841709 10.5488 0.646447 10.3536Z" fill="#828282"/>
</svg>
