<svg width="38" height="38" viewBox="0 0 38 38" fill="none" xmlns="http://www.w3.org/2000/svg">
<path d="M19 38C29.4934 38 38 29.4934 38 19C38 8.50659 29.4934 0 19 0C8.50659 0 0 8.50659 0 19C0 29.4934 8.50659 38 19 38Z" fill="#55ACEE"/>
<path d="M30.6373 13.6548C29.8231 14.0158 28.9472 14.26 28.0287 14.3691C28.9665 13.8072 29.6862 12.9181 30.0259 11.857C29.1484 12.3776 28.176 12.7552 27.142 12.9588C26.3135 12.0765 25.1332 11.5251 23.8262 11.5251C21.3185 11.5251 19.2846 13.5589 19.2846 16.0666C19.2846 16.4226 19.3249 16.7691 19.4028 17.1017C15.6284 16.9123 12.2818 15.1044 10.0417 12.3559C9.65084 13.0265 9.42662 13.8072 9.42662 14.6394C9.42662 16.2146 10.229 17.6053 11.4469 18.4195C10.7028 18.3962 10.0021 18.1919 9.39005 17.8509C9.38971 17.8702 9.38971 17.8895 9.38971 17.9084C9.38971 20.1089 10.9558 21.9443 13.033 22.3612C12.6523 22.4655 12.2503 22.5208 11.8368 22.5208C11.5435 22.5208 11.2593 22.4926 10.9822 22.4398C11.5601 24.2437 13.2369 25.5568 15.2247 25.5937C13.6701 26.812 11.7121 27.5378 9.58378 27.5378C9.21799 27.5378 8.85559 27.5165 8.50098 27.4741C10.5098 28.7632 12.8975 29.5148 15.4621 29.5148C23.8157 29.5148 28.3839 22.5946 28.3839 16.5926C28.3839 16.3958 28.3795 16.1997 28.3707 16.0053C29.2588 15.3652 30.0286 14.5655 30.6373 13.6548Z" fill="#F1F2F2"/>
</svg>
