<svg width="62" height="34" viewBox="0 0 62 34" fill="none" xmlns="http://www.w3.org/2000/svg">
<rect x="0.5" y="0.5" width="61" height="33" rx="3.5" fill="white" stroke="#E0E0E0"/>
<path d="M26.1001 21.5968L27.7763 12.454H30.3953L28.7715 21.5968H26.1001Z" fill="#3C58BF"/>
<path d="M26.1001 21.5968L28.2477 12.454H30.3953L28.7715 21.5968H26.1001Z" fill="#293688"/>
<path d="M38.2526 12.5555C37.7288 12.3523 36.8907 12.1491 35.843 12.1491C33.224 12.1491 31.3383 13.4189 31.3383 15.2475C31.3383 16.6189 32.6478 17.3301 33.6954 17.7872C34.743 18.2443 35.0573 18.5491 35.0573 18.9555C35.0573 19.565 34.2192 19.8697 33.4859 19.8697C32.4383 19.8697 31.8621 19.7174 30.9716 19.3618L30.6049 19.2094L30.2383 21.292C30.8669 21.5459 32.0192 21.7999 33.224 21.7999C36.0002 21.7999 37.8335 20.5301 37.8335 18.5999C37.8335 17.5332 37.1526 16.7205 35.5811 16.0602C34.6383 15.6031 34.0621 15.3491 34.0621 14.892C34.0621 14.4856 34.5335 14.0793 35.5811 14.0793C36.4716 14.0793 37.1002 14.2316 37.5716 14.4348L37.8335 14.5364L38.2526 12.5555Z" fill="#3C58BF"/>
<path d="M38.2526 12.5555C37.7288 12.3523 36.8907 12.1491 35.843 12.1491C33.224 12.1491 31.8097 13.4189 31.8097 15.2475C31.8097 16.6189 32.6478 17.3301 33.6954 17.7872C34.743 18.2443 35.0573 18.5491 35.0573 18.9555C35.0573 19.565 34.2192 19.8697 33.4859 19.8697C32.4383 19.8697 31.8621 19.7174 30.9716 19.3618L30.6049 19.2094L30.2383 21.292C30.8669 21.5459 32.0192 21.7999 33.224 21.7999C36.0002 21.7999 37.8335 20.5301 37.8335 18.5999C37.8335 17.5332 37.1526 16.7205 35.5811 16.0602C34.6383 15.6031 34.0621 15.3491 34.0621 14.892C34.0621 14.4856 34.5335 14.0793 35.5811 14.0793C36.4716 14.0793 37.1002 14.2316 37.5716 14.4348L37.8335 14.5364L38.2526 12.5555Z" fill="#293688"/>
<path d="M42.7573 12.454C42.1287 12.454 41.6573 12.5048 41.3954 13.1143L37.4668 21.5968H40.2954L40.8192 20.073H44.1716L44.4858 21.5968H47.0001L44.8001 12.454H42.7573ZM41.5525 18.5492C41.7097 18.0921 42.6001 15.8572 42.6001 15.8572C42.6001 15.8572 42.8097 15.2984 42.9668 14.9429L43.1239 15.8064C43.1239 15.8064 43.6477 18.0921 43.7525 18.6H41.5525V18.5492Z" fill="#3C58BF"/>
<path d="M43.3858 12.454C42.7573 12.454 42.2858 12.5048 42.0239 13.1143L37.4668 21.5968H40.2954L40.8192 20.073H44.1716L44.4858 21.5968H47.0001L44.8001 12.454H43.3858ZM41.5525 18.5492C41.762 18.0413 42.6001 15.8572 42.6001 15.8572C42.6001 15.8572 42.8097 15.2984 42.9668 14.9429L43.1239 15.8064C43.1239 15.8064 43.6477 18.0921 43.7525 18.6H41.5525V18.5492Z" fill="#293688"/>
<path d="M21.2811 18.854L21.0192 17.5333C20.5478 16.0095 19.0287 14.3333 17.3525 13.5206L19.7097 21.6476H22.5383L26.7811 12.5048H23.9525L21.2811 18.854Z" fill="#3C58BF"/>
<path d="M21.2811 18.854L21.0192 17.5333C20.5478 16.0095 19.0287 14.3333 17.3525 13.5206L19.7097 21.6476H22.5383L26.7811 12.5048H24.4764L21.2811 18.854Z" fill="#293688"/>
<path d="M14 12.454L14.4714 12.5556C17.8238 13.3175 20.1286 15.2476 21.019 17.5333L20.0762 13.2159C19.919 12.6064 19.4476 12.454 18.8714 12.454H14Z" fill="#FFBC00"/>
<path d="M14 12.454C17.3524 13.2159 20.1286 15.1968 21.019 17.4826L20.1286 13.8762C19.9714 13.2667 19.4476 12.9111 18.8714 12.9111L14 12.454Z" fill="#F7981D"/>
<path d="M14 12.454C17.3524 13.2159 20.1286 15.1968 21.019 17.4826L20.3905 15.5016C20.2333 14.8921 20.0238 14.2826 19.2905 14.0286L14 12.454Z" fill="#ED7C00"/>
<path d="M23.9 18.5493L22.1191 16.8223L21.281 18.7524L21.0715 17.4826C20.6 15.9588 19.081 14.2826 17.4048 13.4699L19.7619 21.5969H22.5905L23.9 18.5493Z" fill="#051244"/>
<path d="M28.7715 21.5969L26.5191 19.362L26.1001 21.5969H28.7715Z" fill="#051244"/>
<path d="M34.7954 18.4477C35.005 18.6509 35.1097 18.8033 35.0573 19.0064C35.0573 19.6159 34.2192 19.9207 33.4859 19.9207C32.4383 19.9207 31.8621 19.7683 30.9716 19.4128L30.6049 19.2604L30.2383 21.3429C30.8669 21.5969 32.0192 21.8509 33.224 21.8509C34.9002 21.8509 36.2621 21.3937 37.0478 20.581L34.7954 18.4477Z" fill="#051244"/>
<path d="M37.8335 21.5969H40.2954L40.8192 20.0731H44.1716L44.4859 21.5969H47.0002L46.1097 17.889L42.9668 14.9429L43.124 15.7556C43.124 15.7556 43.6478 18.0413 43.7525 18.5493H41.5525C41.7621 18.0413 42.6002 15.8572 42.6002 15.8572C42.6002 15.8572 42.8097 15.2985 42.9668 14.9429" fill="#051244"/>
</svg>
