<svg id="SvgjsSvg1028" width="288" height="288" xmlns="http://www.w3.org/2000/svg" version="1.1" xmlns:xlink="http://www.w3.org/1999/xlink" xmlns:svgjs="http://svgjs.com/svgjs"><defs id="SvgjsDefs1029"></defs><g id="SvgjsG1030"><svg xmlns="http://www.w3.org/2000/svg" width="288" height="288" enable-background="new 0 0 64 64" viewBox="0 0 64 64"><circle cx="32" cy="32" r="32" fill="#283988" class="color77B3D4 svgShape"></circle><path fill="#231f20" d="M49.529,33.855L35.259,15.71c-1.793-2.28-4.726-2.28-6.519,0L14.471,33.855    C12.679,36.135,13.439,38,16.161,38H24v12c0,2.209,1.791,4,4,4h8c2.209,0,4-1.791,4-4V38h7.839    C50.561,38,51.321,36.135,49.529,33.855z" opacity=".2" class="color231F20 svgShape"></path><path fill="#ffffff" d="M40,48c0,2.209-1.791,4-4,4h-8c-2.209,0-4-1.791-4-4V24c0-2.209,1.791-4,4-4h8c2.209,0,4,1.791,4,4V48z" class="colorFFF svgShape"></path><path fill="#ffffff" d="M16.161,36c-2.722,0-3.483-1.865-1.69-4.145L28.741,13.71c1.793-2.28,4.726-2.28,6.519,0l14.269,18.146    c1.793,2.28,1.032,4.145-1.69,4.145H16.161z" class="colorFFF svgShape"></path></svg></g></svg>