<svg id="SvgjsSvg1001" width="288" height="288" xmlns="http://www.w3.org/2000/svg" version="1.1" xmlns:xlink="http://www.w3.org/1999/xlink" xmlns:svgjs="http://svgjs.com/svgjs"><defs id="SvgjsDefs1002"></defs><g id="SvgjsG1008" transform="matrix(0.9167,0,0,0.9167,11.995200000000011,11.995200000000011)"><svg xmlns="http://www.w3.org/2000/svg" width="288" height="288" viewBox="0 0 512 512"><path d="m456 80h-400a40.04552 40.04552 0 0 0 -40 40v272a40.04552 40.04552 0 0 0 40 40h400a40.04552 40.04552 0 0 0 40-40v-272a40.04552 40.04552 0 0 0 -40-40zm0 336h-400a24.0275 24.0275 0 0 1 -24-24v-8.022a39.79015 39.79015 0 0 0 24 8.022h32v-16h-32a24.02718 24.02718 0 0 1 -24-24v-8.022a39.79015 39.79015 0 0 0 24 8.022h400a39.79015 39.79015 0 0 0 24-8.022v8.022a24.0275 24.0275 0 0 1 -24 24h-128v16h128a39.79015 39.79015 0 0 0 24-8.022v8.022a24.0275 24.0275 0 0 1 -24 24zm24-104a24.0275 24.0275 0 0 1 -24 24h-400a24.0275 24.0275 0 0 1 -24-24v-192a24.0275 24.0275 0 0 1 24-24h400a24.0275 24.0275 0 0 1 24 24z" fill="#283988" class="color000 svgShape"></path><path d="M104 376h16v16h-16zM296 376h16v16h-16zM104 136v-16h-16v16a8.00917 8.00917 0 01-8 8h-16v16h16a8.00917 8.00917 0 018 8v32a8.00917 8.00917 0 01-8 8h-16v16h16a8.00917 8.00917 0 018 8v32a8.00917 8.00917 0 01-8 8h-16v16h16a8.00917 8.00917 0 018 8v16h16v-16a8.00917 8.00917 0 018-8h16v-16h-16a8.00917 8.00917 0 01-8-8v-32a8.00917 8.00917 0 018-8h16v-16h-16a8.00917 8.00917 0 01-8-8v-32a8.00917 8.00917 0 018-8h16v-16h-16a8.00917 8.00917 0 01-8-8zM184 136v-16h-16v16a8.00917 8.00917 0 01-8 8h-16v16h16a8.00917 8.00917 0 018 8v32a8.00917 8.00917 0 01-8 8h-16v16h16a8.00917 8.00917 0 018 8v32a8.00917 8.00917 0 01-8 8h-16v16h16a8.00917 8.00917 0 018 8v16h16v-16a8.00917 8.00917 0 018-8h16v-16h-16a8.00917 8.00917 0 01-8-8v-32a8.00917 8.00917 0 018-8h16v-16h-16a8.00917 8.00917 0 01-8-8v-32a8.00917 8.00917 0 018-8h16v-16h-16a8.00917 8.00917 0 01-8-8zM264 136v-16h-16v16a8.00917 8.00917 0 01-8 8h-16v16h16a8.00917 8.00917 0 018 8v32a8.00917 8.00917 0 01-8 8h-16v16h16a8.00917 8.00917 0 018 8v32a8.00917 8.00917 0 01-8 8h-16v16h16a8.00917 8.00917 0 018 8v16h16v-16a8.00917 8.00917 0 018-8h16v-16h-16a8.00917 8.00917 0 01-8-8v-32a8.00917 8.00917 0 018-8h16v-16h-16a8.00917 8.00917 0 01-8-8v-32a8.00917 8.00917 0 018-8h16v-16h-16a8.00917 8.00917 0 01-8-8zM344 136v-16h-16v16a8.00917 8.00917 0 01-8 8h-16v16h16a8.00917 8.00917 0 018 8v32a8.00917 8.00917 0 01-8 8h-16v16h16a8.00917 8.00917 0 018 8v32a8.00917 8.00917 0 01-8 8h-16v16h16a8.00917 8.00917 0 018 8v16h16v-16a8.00917 8.00917 0 018-8h16v-16h-16a8.00917 8.00917 0 01-8-8v-32a8.00917 8.00917 0 018-8h16v-16h-16a8.00917 8.00917 0 01-8-8v-32a8.00917 8.00917 0 018-8h16v-16h-16a8.00917 8.00917 0 01-8-8zM424 136v-16h-16v16a8.00917 8.00917 0 01-8 8h-16v16h16a8.00917 8.00917 0 018 8v32a8.00917 8.00917 0 01-8 8h-16v16h16a8.00917 8.00917 0 018 8v32a8.00917 8.00917 0 01-8 8h-16v16h16a8.00917 8.00917 0 018 8v16h16v-16a8.00917 8.00917 0 018-8h16v-16h-16a8.00917 8.00917 0 01-8-8v-32a8.00917 8.00917 0 018-8h16v-16h-16a8.00917 8.00917 0 01-8-8v-32a8.00917 8.00917 0 018-8h16v-16h-16a8.00917 8.00917 0 01-8-8z" fill="#283988" class="color000 svgShape"></path></svg></g></svg>