<svg id="SvgjsSvg1012" width="288" height="288" xmlns="http://www.w3.org/2000/svg" version="1.1" xmlns:xlink="http://www.w3.org/1999/xlink" xmlns:svgjs="http://svgjs.com/svgjs"><defs id="SvgjsDefs1013"></defs><g id="SvgjsG1014"><svg xmlns="http://www.w3.org/2000/svg" width="288" height="288" viewBox="0 0 512 512"><path d="M481.607,399.4c19.1-63.342,19.1-127.458,0-190.8a48,48,0,1,0-66.6-65.579,853.377,853.377,0,0,0-318.022,0,48,48,0,1,0-66.6,65.579c-19.1,63.342-19.1,127.458,0,190.8a48,48,0,1,0,66.6,65.579,853.377,853.377,0,0,0,318.022,0,48,48,0,1,0,66.6-65.579ZM456,472a32.016,32.016,0,0,1-29.332-19.2,7.994,7.994,0,0,0-8.868-4.647,837.631,837.631,0,0,1-323.6,0,7.994,7.994,0,0,0-8.868,4.647A32,32,0,1,1,43.2,410.668a8,8,0,0,0,4.411-9.783c-20.71-64.288-20.71-129.482,0-193.77a8,8,0,0,0-4.411-9.783A32,32,0,1,1,85.332,155.2a8,8,0,0,0,8.868,4.647,837.631,837.631,0,0,1,323.6,0,8,8,0,0,0,8.868-4.647A32,32,0,1,1,468.8,197.332a8,8,0,0,0-4.411,9.783c20.71,64.288,20.71,129.482,0,193.77a8,8,0,0,0,4.411,9.783A32,32,0,0,1,456,472Z" fill="#283988" class="color000 svgShape"></path><path d="M382.786 422.267A833.8 833.8 0 01176.764 428.2a8 8 0 00-1.528 15.928q40.113 3.847 80.547 3.847a853.2 853.2 0 00129.431-9.892 8 8 0 00-2.428-15.814zM280 176h15.355l-21.6 27A8 8 0 00280 216h32a8 8 0 000-16H296.645l21.6-27A8 8 0 00312 160H280a8 8 0 000 16zM352 80h15.355l-21.6 27A8 8 0 00352 120h32a8 8 0 000-16H368.645l21.6-27A8 8 0 00384 64H352a8 8 0 000 16zM256 40h15.355l-21.6 27A8 8 0 00256 80h32a8 8 0 000-16H272.645l21.6-27A8 8 0 00288 24H256a8 8 0 000 16z" fill="#283988" class="color000 svgShape"></path></svg></g></svg>