<svg id="SvgjsSvg1013" width="288" height="288" xmlns="http://www.w3.org/2000/svg" version="1.1" xmlns:xlink="http://www.w3.org/1999/xlink" xmlns:svgjs="http://svgjs.com/svgjs"><defs id="SvgjsDefs1014"></defs><g id="SvgjsG1015"><svg xmlns="http://www.w3.org/2000/svg" width="288" height="288" viewBox="0 0 64 64"><path d="M29.072,31.371l1.856-.742a18.306,18.306,0,0,0-15.6-11.394L12.071,19,11.929,21l3.257.232A16.3,16.3,0,0,1,29.072,31.371Z" fill="#283988" class="color000 svgShape"></path><path d="M60.329,29.718a3.122,3.122,0,0,0,0-4.414,3.2,3.2,0,0,0-4.414,0l-.328.327a1.133,1.133,0,0,1-.968.315L46.2,24.615a42.13,42.13,0,0,0-.674-7.141,1.121,1.121,0,0,1,.31-.994l.253-.252a3.122,3.122,0,0,0-4.414-4.415l-.327.328a1.122,1.122,0,0,1-.969.315l-8.918-1.408a41.994,41.994,0,0,0-13.159,0L9.381,12.455a1.112,1.112,0,0,1-.968-.314l-.327-.328a3.122,3.122,0,0,0-4.415,4.414l.253.253a1.121,1.121,0,0,1,.31.994,42.063,42.063,0,0,0,0,15.093,1.122,1.122,0,0,1-.311.995l-.251.251a3.122,3.122,0,0,0,4.414,4.415l.326-.328a1.138,1.138,0,0,1,.969-.315l8.43,1.331a42.188,42.188,0,0,0,.666,7.141,1.122,1.122,0,0,1-.31.994l-.253.253a3.121,3.121,0,0,0,4.414,4.414l.328-.327a1.123,1.123,0,0,1,.968-.316l8.918,1.408a42.045,42.045,0,0,0,13.159,0l8.918-1.407a1.1,1.1,0,0,1,.968.315l.327.327a3.121,3.121,0,1,0,4.415-4.413l-.253-.254a1.122,1.122,0,0,1-.31-.994,42.063,42.063,0,0,0,0-15.093,1.12,1.12,0,0,1,.309-.993ZM9.21,35.572A3.135,3.135,0,0,0,7,36.486l-.326.327a1.121,1.121,0,1,1-1.585-1.586l.251-.252A3.122,3.122,0,0,0,6.2,32.21a40.071,40.071,0,0,1,0-14.379,3.122,3.122,0,0,0-.863-2.764l-.253-.254a1.121,1.121,0,0,1,1.585-1.585L7,13.555a3.126,3.126,0,0,0,2.693.876l8.919-1.409a40.166,40.166,0,0,1,12.535,0l8.919,1.41a3.151,3.151,0,0,0,2.694-.877l.327-.327a1.121,1.121,0,0,1,1.586,1.585l-.253.253a3.122,3.122,0,0,0-.864,2.765,40.071,40.071,0,0,1,0,14.379,3.122,3.122,0,0,0,.864,2.765l.253.253a1.121,1.121,0,0,1-1.586,1.585l-.328-.327a3.126,3.126,0,0,0-2.693-.876l-8.919,1.409a40.166,40.166,0,0,1-12.535,0l-8.919-1.41A3.249,3.249,0,0,0,9.21,35.572ZM57.8,31.321a40.065,40.065,0,0,1,0,14.378,3.123,3.123,0,0,0,.863,2.765l.253.254A1.121,1.121,0,0,1,57.329,50.3L57,49.977a3.123,3.123,0,0,0-2.694-.876l-8.919,1.408a40.2,40.2,0,0,1-12.535,0L23.935,49.1a3.146,3.146,0,0,0-2.694.877l-.327.327a1.121,1.121,0,0,1-1.586-1.586l.253-.253a3.123,3.123,0,0,0,.864-2.766,40.162,40.162,0,0,1-.631-6.5,42.091,42.091,0,0,0,5.065.309,42.01,42.01,0,0,0,6.579-.519l8.918-1.407a1.115,1.115,0,0,1,.969.314l.327.328a3.122,3.122,0,0,0,4.414-4.415l-.253-.252a1.121,1.121,0,0,1-.31-.994,42.121,42.121,0,0,0,.646-5.928l8.139,1.282A3.145,3.145,0,0,0,57,27.045l.328-.327a1.147,1.147,0,0,1,1.585,0,1.12,1.12,0,0,1,0,1.585l-.253.253A3.12,3.12,0,0,0,57.8,31.321Z" fill="#283988" class="color000 svgShape"></path><path d="M35.307,45.28l-3.257.234.142,1.994,3.258-.234a18.3,18.3,0,0,0,15.6-11.392l-1.858-.742A16.288,16.288,0,0,1,35.307,45.28Z" fill="#283988" class="color000 svgShape"></path></svg></g></svg>