<svg id="SvgjsSvg1028" width="288" height="288" xmlns="http://www.w3.org/2000/svg" version="1.1" xmlns:xlink="http://www.w3.org/1999/xlink" xmlns:svgjs="http://svgjs.com/svgjs"><defs id="SvgjsDefs1029"></defs><g id="SvgjsG1030"><svg xmlns="http://www.w3.org/2000/svg" width="288" height="288" viewBox="0 0 64 64"><path d="M58,32.1V12.906A2.869,2.869,0,0,0,57.841,12H58a1,1,0,0,0,1-1V5a1,1,0,0,0-1-1H52a1,1,0,0,0-1,1v6a1,1,0,0,0,1,1h.159a2.869,2.869,0,0,0-.159.906V13H40.919A4.513,4.513,0,0,0,41,12.185a4.805,4.805,0,0,0-1.855-3.739,5.909,5.909,0,0,0-7.206-.423,5.878,5.878,0,0,0-7.084.423A4.805,4.805,0,0,0,23,12.185a4.6,4.6,0,0,0,.08.815H12v-.156A2.807,2.807,0,0,0,11.858,12H12a1,1,0,0,0,1-1V5a1,1,0,0,0-1-1H6A1,1,0,0,0,5,5v6a1,1,0,0,0,1,1h.142A2.807,2.807,0,0,0,6,12.844V32.1A5.009,5.009,0,0,0,2,37V47a1,1,0,0,0,1,1H6v9a3,3,0,0,0,6,0V52H52v5a3,3,0,0,0,6,0V48h3a1,1,0,0,0,1-1V37A5.009,5.009,0,0,0,58,32.1ZM53,6h4v4H53Zm3,6.906V32H54V12.906A.906.906,0,0,1,54.906,12h.188A.906.906,0,0,1,56,12.906ZM26.123,9.993a3.989,3.989,0,0,1,2.542-.953,4.261,4.261,0,0,1,2.7,1.033.992.992,0,0,0,1.062.09.929.929,0,0,0,.34-.276,3.945,3.945,0,0,1,5.109.106A2.842,2.842,0,0,1,39,12.185a2.875,2.875,0,0,1-1.157,2.221L32,19.655l-5.877-5.278A2.842,2.842,0,0,1,25,12.185,2.842,2.842,0,0,1,26.123,9.993ZM12,15H23.964a5.276,5.276,0,0,0,.857.895l6.511,5.849a1,1,0,0,0,1.336,0l6.477-5.82A5.427,5.427,0,0,0,40.031,15H52V32H50V28a3.913,3.913,0,0,0-4-4H38a3.913,3.913,0,0,0-4,4v4H30V28a3.87,3.87,0,0,0-4-4H18a3.87,3.87,0,0,0-4,4v4H12ZM48,28v4H36V28a1.913,1.913,0,0,1,2-2h8A1.913,1.913,0,0,1,48,28ZM28,28v4H16V28a1.874,1.874,0,0,1,2-2h8A1.874,1.874,0,0,1,28,28ZM7,6h4v4H7Zm3,6.844V32H8V12.844A.845.845,0,0,1,8.844,12h.312A.845.845,0,0,1,10,12.844ZM10,57a1,1,0,0,1-2,0V48h2Zm42-7H12V48H52Zm4,7a1,1,0,0,1-2,0V48h2Zm4-11H4V41.233A7.942,7.942,0,0,0,10,44c3.185,0,4.806-1.766,6.236-3.323C17.556,39.24,18.694,38,21,38s3.445,1.24,4.764,2.676C27.193,42.234,28.814,44,32,44s4.806-1.766,6.236-3.323C39.556,39.24,40.694,38,43,38s3.445,1.24,4.764,2.676C49.193,42.234,50.813,44,54,44a7.934,7.934,0,0,0,6-2.768Zm0-7.469c-.443.366-.856.746-1.247,1.124C57.454,40.914,56.332,42,54,42c-2.308,0-3.445-1.24-4.764-2.676C47.807,37.766,46.187,36,43,36s-4.806,1.766-6.236,3.323C35.444,40.76,34.306,42,32,42s-3.445-1.24-4.764-2.676C25.807,37.766,24.186,36,21,36s-4.806,1.766-6.236,3.323C13.444,40.76,12.306,42,10,42c-2.331,0-3.457-1.089-4.76-2.35-.388-.376-.8-.755-1.24-1.118V37a3,3,0,0,1,3-3H57a3,3,0,0,1,3,3Z" fill="#283988" class="color000 svgShape"></path><rect width="8" height="2" x="18" y="28" fill="#283988" class="color000 svgShape"></rect><rect width="8" height="2" x="38" y="28" fill="#283988" class="color000 svgShape"></rect></svg></g></svg>