<svg width="32" height="32" viewBox="0 0 32 32" fill="none" xmlns="http://www.w3.org/2000/svg">
<path d="M11.2125 13.7623C11.2125 14.3415 11.0438 14.8248 10.7063 15.2123C10.3688 15.5956 9.89377 15.854 9.28127 15.9873V16.0373C10.0146 16.129 10.5646 16.3581 10.9313 16.7248C11.2979 17.0873 11.4813 17.5706 11.4813 18.1748C11.4813 19.054 11.1709 19.7331 10.55 20.2123C9.92919 20.6873 9.04586 20.9248 7.90002 20.9248C6.88752 20.9248 6.03336 20.7602 5.33752 20.4311V19.1248C5.72502 19.3165 6.13544 19.4644 6.56877 19.5686C7.00211 19.6727 7.41877 19.7248 7.81877 19.7248C8.52711 19.7248 9.05627 19.5936 9.40627 19.3311C9.75627 19.0686 9.93127 18.6623 9.93127 18.1123C9.93127 17.6248 9.73752 17.2665 9.35002 17.0373C8.96252 16.8081 8.35419 16.6936 7.52502 16.6936H6.73127V15.4998H7.53752C8.99586 15.4998 9.72502 14.9956 9.72502 13.9873C9.72502 13.5956 9.59794 13.2936 9.34377 13.0811C9.08961 12.8686 8.71461 12.7623 8.21877 12.7623C7.87294 12.7623 7.53961 12.8123 7.21877 12.9123C6.89794 13.0081 6.51877 13.1977 6.08127 13.4811L5.36252 12.4561C6.20002 11.8394 7.17294 11.5311 8.28127 11.5311C9.20211 11.5311 9.92086 11.729 10.4375 12.1248C10.9542 12.5206 11.2125 13.0665 11.2125 13.7623Z" fill="#4F4F4F"/>
<path d="M12.7 16.9061C12.7 13.3311 14.1563 11.5436 17.0688 11.5436C17.5271 11.5436 17.9146 11.579 18.2313 11.6498V12.8748C17.9146 12.7831 17.5479 12.7373 17.1313 12.7373C16.1521 12.7373 15.4167 12.9998 14.925 13.5248C14.4334 14.0498 14.1667 14.8915 14.125 16.0498H14.2C14.3959 15.7123 14.6709 15.4519 15.025 15.2686C15.3792 15.0811 15.7959 14.9873 16.275 14.9873C17.1042 14.9873 17.75 15.2415 18.2125 15.7498C18.675 16.2581 18.9063 16.9477 18.9063 17.8186C18.9063 18.7769 18.6375 19.5352 18.1 20.0936C17.5667 20.6477 16.8375 20.9248 15.9125 20.9248C15.2584 20.9248 14.6896 20.7686 14.2063 20.4561C13.7229 20.1394 13.35 19.6811 13.0875 19.0811C12.8292 18.4769 12.7 17.7519 12.7 16.9061ZM15.8875 19.7123C16.3917 19.7123 16.7792 19.5498 17.05 19.2248C17.325 18.8998 17.4625 18.4352 17.4625 17.8311C17.4625 17.3061 17.3334 16.8936 17.075 16.5936C16.8209 16.2936 16.4375 16.1436 15.925 16.1436C15.6084 16.1436 15.3167 16.2123 15.05 16.3498C14.7834 16.4831 14.5729 16.6686 14.4188 16.9061C14.2646 17.1394 14.1875 17.379 14.1875 17.6248C14.1875 18.2123 14.3459 18.7081 14.6625 19.1123C14.9834 19.5123 15.3917 19.7123 15.8875 19.7123Z" fill="#4F4F4F"/>
<path d="M26.1813 16.2311C26.1813 17.8186 25.925 18.9977 25.4125 19.7686C24.9042 20.5394 24.125 20.9248 23.075 20.9248C22.0584 20.9248 21.2875 20.5269 20.7625 19.7311C20.2375 18.9352 19.975 17.7686 19.975 16.2311C19.975 14.6186 20.2292 13.4311 20.7375 12.6686C21.25 11.9019 22.0292 11.5186 23.075 11.5186C24.0959 11.5186 24.8688 11.9186 25.3938 12.7186C25.9188 13.5186 26.1813 14.6894 26.1813 16.2311ZM21.4625 16.2311C21.4625 17.4769 21.5896 18.3665 21.8438 18.8998C22.1021 19.4331 22.5125 19.6998 23.075 19.6998C23.6375 19.6998 24.0479 19.429 24.3063 18.8873C24.5688 18.3456 24.7 17.4602 24.7 16.2311C24.7 15.0061 24.5688 14.1206 24.3063 13.5748C24.0479 13.0248 23.6375 12.7498 23.075 12.7498C22.5125 12.7498 22.1021 13.0186 21.8438 13.5561C21.5896 14.0936 21.4625 14.9852 21.4625 16.2311Z" fill="#4F4F4F"/>
<path d="M28.8 10.1004C29.9597 10.1004 30.9 9.16019 30.9 8.00039C30.9 6.84059 29.9597 5.90039 28.8 5.90039C27.6402 5.90039 26.7 6.84059 26.7 8.00039C26.7 9.16019 27.6402 10.1004 28.8 10.1004Z" stroke="#4F4F4F"/>
<path d="M3.94405 17.2148C4.17327 17.0609 4.23426 16.7502 4.08027 16.521C3.92628 16.2918 3.61563 16.2308 3.38641 16.3848L3.94405 17.2148ZM13.5736 28.4907C13.8448 28.5431 14.107 28.3657 14.1593 28.0946C14.2117 27.8234 14.0343 27.5612 13.7632 27.5089L13.5736 28.4907ZM3.38641 16.3848C2.45311 17.0117 1.53132 17.8634 0.956507 18.8631C0.375109 19.8741 0.137417 21.064 0.64933 22.2922C1.1517 23.4975 2.33778 24.6444 4.38335 25.6831C6.4348 26.7248 9.40545 27.6861 13.5736 28.4907L13.7632 27.5089C9.64302 26.7135 6.77252 25.7748 4.83611 24.7915C2.8938 23.8052 1.94527 22.8021 1.57236 21.9074C1.209 21.0356 1.35536 20.1755 1.8234 19.3616C2.29803 18.5362 3.09107 17.7879 3.94405 17.2148L3.38641 16.3848Z" fill="#4F4F4F"/>
<path d="M27.3244 17.2148C27.0952 17.0609 27.0342 16.7502 27.1882 16.521C27.3421 16.2918 27.6528 16.2308 27.882 16.3848L27.3244 17.2148ZM17.6948 28.4907C17.4237 28.5431 17.1614 28.3657 17.1091 28.0946C17.0567 27.8234 17.2341 27.5612 17.5053 27.5089L17.6948 28.4907ZM27.882 16.3848C28.8153 17.0117 29.7371 17.8634 30.3119 18.8631C30.8933 19.8741 31.131 21.064 30.6191 22.2922C30.1167 23.4975 28.9307 24.6444 26.8851 25.6831C24.8336 26.7248 21.863 27.6861 17.6948 28.4907L17.5053 27.5089C21.6254 26.7135 24.4959 25.7748 26.4323 24.7915C28.3746 23.8052 29.3232 22.8021 29.6961 21.9074C30.0594 21.0356 29.9131 20.1755 29.445 19.3616C28.9704 18.5362 28.1774 17.7879 27.3244 17.2148L27.882 16.3848Z" fill="#4F4F4F"/>
<path d="M12.4 24.4998C12.2343 24.2789 11.9209 24.2341 11.7 24.3998C11.479 24.5655 11.4343 24.8789 11.6 25.0998L12.4 24.4998ZM14.4 27.9998L14.7 28.3998C14.9209 28.2341 14.9656 27.9207 14.8 27.6998L14.4 27.9998ZM10.9 29.9998C10.679 30.1655 10.6343 30.4789 10.8 30.6998C10.9656 30.9207 11.279 30.9655 11.5 30.7998L10.9 29.9998ZM11.6 25.0998L14 28.2998L14.8 27.6998L12.4 24.4998L11.6 25.0998ZM14.1 27.5998L10.9 29.9998L11.5 30.7998L14.7 28.3998L14.1 27.5998Z" fill="#4F4F4F"/>
</svg>
