<svg width="16" height="16" viewBox="0 0 16 16" fill="none" xmlns="http://www.w3.org/2000/svg">
<path d="M11.3951 0H4.60493C3.61862 0 2.81616 0.802462 2.81616 1.78877V14.2112C2.81616 15.1975 3.61862 16 4.60493 16H11.395C12.3813 16 13.1838 15.1975 13.1838 14.2112V1.78877C13.1839 0.802462 12.3814 0 11.3951 0ZM3.97001 3.26938H12.03V4.35415H3.97001V3.26938ZM4.60493 1.15385H11.395C11.7451 1.15385 12.0299 1.43869 12.0299 1.78877V2.11562H3.97001V1.78877C3.97001 1.43869 4.25485 1.15385 4.60493 1.15385ZM11.3951 14.8462H4.60493C4.25485 14.8462 3.97001 14.5613 3.97001 14.2112V5.508H12.03V14.2112C12.03 14.5613 11.7452 14.8462 11.3951 14.8462Z" fill="#007DFF"/>
<path d="M10.8746 7.06152H9.59741V8.33876H10.8746V7.06152Z" fill="#007DFF"/>
<path d="M8.6388 7.06152H7.36157V8.33876H8.6388V7.06152Z" fill="#007DFF"/>
<path d="M6.40247 7.06152H5.12524V8.33876H6.40247V7.06152Z" fill="#007DFF"/>
<path d="M10.8746 9.60059H9.59741V10.8778H10.8746V9.60059Z" fill="#007DFF"/>
<path d="M8.6388 9.60059H7.36157V10.8778H8.6388V9.60059Z" fill="#007DFF"/>
<path d="M6.40247 9.60059H5.12524V10.8778H6.40247V9.60059Z" fill="#007DFF"/>
<path d="M10.8746 12.1387H9.59741V13.4159H10.8746V12.1387Z" fill="#007DFF"/>
<path d="M8.6388 12.1387H7.36157V13.4159H8.6388V12.1387Z" fill="#007DFF"/>
<path d="M6.40247 12.1387H5.12524V13.4159H6.40247V12.1387Z" fill="#007DFF"/>
</svg>
