<svg width="563" height="153" viewBox="0 0 563 153" fill="none" xmlns="http://www.w3.org/2000/svg">
<g filter="url(#filter0_b)">
<path d="M112.06 49.552C110.284 50.464 108.388 51.16 106.372 51.64C104.404 52.12 102.316 52.36 100.108 52.36C96.2198 52.36 92.6918 51.64 89.5238 50.2C86.3558 48.712 83.6438 46.768 81.3878 44.368C79.1318 41.92 77.3798 39.136 76.1318 36.016C74.8838 32.896 74.2598 29.68 74.2598 26.368C74.2598 23.008 74.9078 19.768 76.2038 16.648C77.4998 13.528 79.2998 10.768 81.6038 8.368C83.9558 5.968 86.7158 4.072 89.8838 2.68C93.0998 1.24 96.6038 0.519998 100.396 0.519998C104.284 0.519998 107.812 1.288 110.98 2.824C114.148 4.312 116.86 6.28 119.116 8.728C121.372 11.176 123.1 13.96 124.3 17.08C125.548 20.2 126.172 23.392 126.172 26.656C126.172 29.824 125.596 32.872 124.444 35.8C123.34 38.68 121.756 41.272 119.692 43.576L127.468 52H114.364L112.06 49.552ZM100.252 39.904C101.308 39.904 102.196 39.808 102.916 39.616L94.4918 30.4H107.596L110.404 33.496C110.932 32.392 111.316 31.24 111.556 30.04C111.796 28.84 111.916 27.616 111.916 26.368C111.916 24.64 111.676 22.984 111.196 21.4C110.716 19.768 109.972 18.328 108.964 17.08C108.004 15.832 106.78 14.848 105.292 14.128C103.852 13.36 102.148 12.976 100.18 12.976C98.1638 12.976 96.4118 13.384 94.9238 14.2C93.4838 14.968 92.2838 16 91.3238 17.296C90.3638 18.544 89.6438 19.984 89.1638 21.616C88.7318 23.2 88.5158 24.832 88.5158 26.512C88.5158 28.24 88.7558 29.92 89.2358 31.552C89.7158 33.136 90.4358 34.552 91.3958 35.8C92.3558 37.048 93.5558 38.056 94.9958 38.824C96.4838 39.544 98.2358 39.904 100.252 39.904ZM154.442 39.976C156.074 39.976 157.466 39.616 158.618 38.896C159.77 38.176 160.706 37.24 161.426 36.088C162.146 34.888 162.674 33.52 163.01 31.984C163.346 30.448 163.514 28.84 163.514 27.16V0.879997H177.554V27.16C177.554 30.712 177.098 34.048 176.186 37.168C175.274 40.24 173.858 42.904 171.938 45.16C170.018 47.416 167.594 49.192 164.666 50.488C161.786 51.784 158.378 52.432 154.442 52.432C150.362 52.432 146.858 51.76 143.93 50.416C141.05 49.024 138.674 47.176 136.802 44.872C134.93 42.568 133.562 39.904 132.698 36.88C131.834 33.808 131.402 30.568 131.402 27.16V0.879997H145.442V27.16C145.442 28.84 145.61 30.472 145.946 32.056C146.282 33.592 146.81 34.96 147.53 36.16C148.25 37.312 149.162 38.248 150.266 38.968C151.418 39.64 152.81 39.976 154.442 39.976ZM196.91 0.879997H209.726L227.438 52H213.182L210.086 41.992H196.478L193.454 52H179.126L196.91 0.879997ZM207.854 32.632L203.318 16.792L198.566 32.632H207.854ZM236.85 0.879997L245.994 22.984L255.354 0.879997H270.618L252.978 35.08V52H239.01V34.936L221.658 0.879997H236.85ZM301.975 26.872V52H287.935V0.879997H298.879L319.399 26.872V0.879997H333.439V52H322.279L301.975 26.872ZM376.92 47.752C373.272 50.824 369.072 52.36 364.32 52.36C361.008 52.36 357.84 51.784 354.816 50.632C351.792 49.432 349.152 47.704 346.896 45.448C344.64 43.192 342.84 40.432 341.496 37.168C340.152 33.904 339.48 30.184 339.48 26.008C339.48 22.408 340.152 19.072 341.496 16C342.84 12.88 344.688 10.192 347.04 7.936C349.392 5.632 352.152 3.832 355.32 2.536C358.536 1.192 361.992 0.519998 365.688 0.519998C367.992 0.519998 370.2 0.783997 372.312 1.312C374.424 1.792 376.368 2.536 378.144 3.544C379.968 4.504 381.6 5.68 383.04 7.072C384.48 8.416 385.656 9.952 386.568 11.68L376.128 19.672C375.12 17.656 373.608 16.048 371.592 14.848C369.576 13.6 367.44 12.976 365.184 12.976C363.504 12.976 361.968 13.312 360.576 13.984C359.184 14.656 357.984 15.592 356.976 16.792C355.968 17.992 355.176 19.432 354.6 21.112C354.024 22.744 353.736 24.544 353.736 26.512C353.736 28.528 354.024 30.352 354.6 31.984C355.176 33.616 355.968 35.032 356.976 36.232C358.032 37.384 359.28 38.296 360.72 38.968C362.16 39.592 363.768 39.904 365.544 39.904C369.624 39.904 373.224 38.224 376.344 34.864H367.488V24.784H388.512V52H376.92V47.752ZM408.691 0.879997H421.507L439.219 52H424.963L421.867 41.992H408.259L405.235 52H390.907L408.691 0.879997ZM419.635 32.632L415.099 16.792L410.347 32.632H419.635ZM448.631 0.879997L457.775 22.984L467.135 0.879997H482.399L464.759 35.08V52H450.791V34.936L433.439 0.879997H448.631ZM58.8815 100.16H39.2975V152H20.5775V100.16H0.8975V83.84H58.8815V100.16ZM65.6998 152V83.84H96.9958C100.324 83.84 103.396 84.544 106.212 85.952C109.028 87.296 111.428 89.088 113.412 91.328C115.46 93.504 117.06 96.032 118.212 98.912C119.364 101.728 119.94 104.576 119.94 107.456C119.94 111.424 119.076 115.136 117.348 118.592C115.62 121.984 113.22 124.768 110.148 126.944L124.548 152H103.428L91.4278 131.072H84.4198V152H65.6998ZM84.4198 114.752H96.2278C97.3798 114.752 98.4358 114.112 99.3958 112.832C100.42 111.552 100.932 109.76 100.932 107.456C100.932 105.088 100.356 103.296 99.2038 102.08C98.0518 100.8 96.8998 100.16 95.7478 100.16H84.4198V114.752ZM159.679 135.968C161.855 135.968 163.711 135.488 165.247 134.528C166.783 133.568 168.031 132.32 168.991 130.784C169.951 129.184 170.655 127.36 171.103 125.312C171.551 123.264 171.775 121.12 171.775 118.88V83.84H190.495V118.88C190.495 123.616 189.887 128.064 188.671 132.224C187.455 136.32 185.567 139.872 183.007 142.88C180.447 145.888 177.215 148.256 173.311 149.984C169.471 151.712 164.927 152.576 159.679 152.576C154.239 152.576 149.567 151.68 145.663 149.888C141.823 148.032 138.655 145.568 136.159 142.496C133.663 139.424 131.839 135.872 130.687 131.84C129.535 127.744 128.959 123.424 128.959 118.88V83.84H147.679V118.88C147.679 121.12 147.903 123.296 148.351 125.408C148.799 127.456 149.503 129.28 150.463 130.88C151.423 132.416 152.639 133.664 154.111 134.624C155.647 135.52 157.503 135.968 159.679 135.968ZM165.247 80.96L153.727 77.888L158.527 64.256H174.75L165.247 80.96ZM219.982 118.496V152H201.262V83.84H215.854L243.214 118.496V83.84H261.934V152H247.054L219.982 118.496ZM319.909 146.336C315.045 150.432 309.445 152.48 303.109 152.48C298.693 152.48 294.469 151.712 290.437 150.176C286.405 148.576 282.885 146.272 279.877 143.264C276.869 140.256 274.469 136.576 272.677 132.224C270.885 127.872 269.989 122.912 269.989 117.344C269.989 112.544 270.885 108.096 272.677 104C274.469 99.84 276.933 96.256 280.069 93.248C283.205 90.176 286.885 87.776 291.109 86.048C295.397 84.256 300.005 83.36 304.933 83.36C308.005 83.36 310.949 83.712 313.765 84.416C316.581 85.056 319.173 86.048 321.541 87.392C323.973 88.672 326.149 90.24 328.069 92.096C329.989 93.888 331.557 95.936 332.773 98.24L318.853 108.896C317.509 106.208 315.493 104.064 312.805 102.464C310.117 100.8 307.269 99.968 304.261 99.968C302.021 99.968 299.973 100.416 298.117 101.312C296.261 102.208 294.661 103.456 293.317 105.056C291.973 106.656 290.917 108.576 290.149 110.816C289.381 112.992 288.997 115.392 288.997 118.016C288.997 120.704 289.381 123.136 290.149 125.312C290.917 127.488 291.973 129.376 293.317 130.976C294.725 132.512 296.389 133.728 298.309 134.624C300.229 135.456 302.373 135.872 304.741 135.872C310.181 135.872 314.981 133.632 319.141 129.152H307.333V115.712H335.365V152H319.909V146.336ZM366.169 152V83.84H384.889V135.68H415.801V152H366.169ZM487.317 117.632C487.317 124.736 486.133 130.944 483.765 136.256C481.461 141.504 477.909 145.6 473.109 148.544C468.309 151.488 462.165 152.96 454.677 152.96C447.253 152.96 441.109 151.488 436.245 148.544C431.445 145.6 427.861 141.472 425.493 136.16C423.189 130.848 422.037 124.64 422.037 117.536C422.037 110.432 423.189 104.256 425.493 99.008C427.861 93.76 431.477 89.696 436.341 86.816C441.205 83.872 447.381 82.4 454.869 82.4C460.373 82.4 465.173 83.232 469.269 84.896C473.429 86.56 476.821 88.896 479.445 91.904C480.917 90.944 482.005 89.344 482.709 87.104C483.413 84.8 483.765 82.112 483.765 79.04H497.877L498.549 80.096C497.525 85.344 495.925 89.6 493.749 92.864C491.573 96.064 488.469 98.496 484.437 100.16C486.357 105.152 487.317 110.976 487.317 117.632ZM437.301 117.632C437.301 124.8 438.677 130.464 441.429 134.624C444.181 138.72 448.597 140.768 454.677 140.768C460.885 140.768 465.333 138.72 468.021 134.624C470.709 130.464 472.053 124.8 472.053 117.632C472.053 110.4 470.709 104.736 468.021 100.64C465.333 96.544 460.917 94.496 454.773 94.496C448.629 94.496 444.181 96.544 441.429 100.64C438.677 104.736 437.301 110.4 437.301 117.632ZM473.109 62.336V63.296C472.213 64.192 471.029 65.28 469.557 66.56C468.085 67.84 466.485 69.184 464.757 70.592C463.093 72 461.429 73.344 459.765 74.624C458.165 75.84 456.757 76.864 455.541 77.696H446.037V76.448C447.061 75.232 448.245 73.824 449.589 72.224C450.997 70.56 452.373 68.864 453.717 67.136C455.061 65.344 456.181 63.744 457.077 62.336H473.109ZM520.264 118.496V152H501.544V83.84H516.136L543.496 118.496V83.84H562.216V152H547.336L520.264 118.496Z" fill="white"/>
</g>
<defs>
<filter id="filter0_b" x="-9.10249" y="-9.47998" width="581.318" height="172.44" filterUnits="userSpaceOnUse" color-interpolation-filters="sRGB">
<feFlood flood-opacity="0" result="BackgroundImageFix"/>
<feGaussianBlur in="BackgroundImage" stdDeviation="5"/>
<feComposite in2="SourceAlpha" operator="in" result="effect1_backgroundBlur"/>
<feBlend mode="normal" in="SourceGraphic" in2="effect1_backgroundBlur" result="shape"/>
</filter>
</defs>
</svg>
