<svg width="752" height="752" viewBox="0 0 752 752" fill="none" xmlns="http://www.w3.org/2000/svg">
<g filter="url(#filter0_d)">
<path fill-rule="evenodd" clip-rule="evenodd" d="M376 737C575.375 737 737 575.375 737 376C737 176.625 575.375 15 376 15C176.625 15 15 176.625 15 376C15 575.375 176.625 737 376 737ZM376 693C551.074 693 693 551.074 693 376C693 200.926 551.074 59 376 59C200.926 59 59 200.926 59 376C59 551.074 200.926 693 376 693Z" fill="#D8020C"/>
</g>
<path d="M366.451 33.7138C368.496 25.523 377.698 20.4038 385.878 22.4515C394.058 24.4992 399.17 33.7138 397.125 41.9045C395.08 50.0953 385.878 55.2144 377.698 53.1668C369.518 51.1191 364.406 41.9045 366.451 33.7138Z" fill="url(#paint0_radial)"/>
<path d="M367.451 710.714C369.496 702.523 378.698 697.404 386.878 699.452C395.058 701.499 400.17 710.714 398.125 718.905C396.08 727.095 386.878 732.214 378.698 730.167C370.518 728.119 365.406 718.904 367.451 710.714Z" fill="url(#paint1_radial)"/>
<path d="M699.451 371.714C701.496 363.523 710.698 358.404 718.878 360.452C727.058 362.499 732.17 371.714 730.125 379.905C728.08 388.095 718.878 393.214 710.698 391.167C702.518 389.119 697.406 379.904 699.451 371.714Z" fill="url(#paint2_radial)"/>
<path d="M22.4509 371.714C24.4959 363.523 33.6981 358.404 41.8779 360.452C50.0577 362.499 55.17 371.714 53.1251 379.905C51.0802 388.095 41.8779 393.214 33.6981 391.167C25.5183 389.119 20.406 379.904 22.4509 371.714Z" fill="url(#paint3_radial)"/>
<path d="M119.451 134.714C121.496 126.523 130.698 121.404 138.878 123.452C147.058 125.499 152.17 134.714 150.125 142.905C148.08 151.095 138.878 156.214 130.698 154.167C122.518 152.119 117.406 142.904 119.451 134.714Z" fill="url(#paint4_radial)"/>
<path d="M219.451 65.7138C221.496 57.523 230.698 52.4038 238.878 54.4515C247.058 56.4992 252.17 65.7138 250.125 73.9045C248.08 82.0953 238.878 87.2144 230.698 85.1668C222.518 83.1191 217.406 73.9045 219.451 65.7138Z" fill="url(#paint5_radial)"/>
<path d="M511.451 65.7138C513.496 57.523 522.698 52.4038 530.878 54.4515C539.058 56.4992 544.17 65.7138 542.125 73.9045C540.08 82.0953 530.878 87.2144 522.698 85.1668C514.518 83.1191 509.406 73.9045 511.451 65.7138Z" fill="url(#paint6_radial)"/>
<path d="M673.451 233.714C675.496 225.523 684.698 220.404 692.878 222.452C701.058 224.499 706.17 233.714 704.125 241.905C702.08 250.095 692.878 255.214 684.698 253.167C676.518 251.119 671.406 241.904 673.451 233.714Z" fill="url(#paint7_radial)"/>
<path d="M49.4509 233.714C51.4959 225.523 60.6981 220.404 68.8779 222.452C77.0577 224.499 82.17 233.714 80.1251 241.905C78.0802 250.095 68.8779 255.214 60.6981 253.167C52.5183 251.119 47.406 241.904 49.4509 233.714Z" fill="url(#paint8_radial)"/>
<path d="M49.4509 509.714C51.4959 501.523 60.6981 496.404 68.8779 498.452C77.0577 500.499 82.17 509.714 80.1251 517.905C78.0802 526.095 68.8779 531.214 60.6981 529.167C52.5183 527.119 47.406 517.904 49.4509 509.714Z" fill="url(#paint9_radial)"/>
<path d="M673.451 509.714C675.496 501.523 684.698 496.404 692.878 498.452C701.058 500.499 706.17 509.714 704.125 517.905C702.08 526.095 692.878 531.214 684.698 529.167C676.518 527.119 671.406 517.904 673.451 509.714Z" fill="url(#paint10_radial)"/>
<path d="M604.451 609.714C606.496 601.523 615.698 596.404 623.878 598.452C632.058 600.499 637.17 609.714 635.125 617.905C633.08 626.095 623.878 631.214 615.698 629.167C607.518 627.119 602.406 617.904 604.451 609.714Z" fill="url(#paint11_radial)"/>
<path d="M604.451 134.714C606.496 126.523 615.698 121.404 623.878 123.452C632.058 125.499 637.17 134.714 635.125 142.905C633.08 151.095 623.878 156.214 615.698 154.167C607.518 152.119 602.406 142.904 604.451 134.714Z" fill="url(#paint12_radial)"/>
<path d="M119.451 609.714C121.496 601.523 130.698 596.404 138.878 598.452C147.058 600.499 152.17 609.714 150.125 617.905C148.08 626.095 138.878 631.214 130.698 629.167C122.518 627.119 117.406 617.904 119.451 609.714Z" fill="url(#paint13_radial)"/>
<path d="M214.451 678.714C216.496 670.523 225.698 665.404 233.878 667.452C242.058 669.499 247.17 678.714 245.125 686.905C243.08 695.095 233.878 700.214 225.698 698.167C217.518 696.119 212.406 686.904 214.451 678.714Z" fill="url(#paint14_radial)"/>
<path d="M511.451 678.714C513.496 670.523 522.698 665.404 530.878 667.452C539.058 669.499 544.17 678.714 542.125 686.905C540.08 695.095 530.878 700.214 522.698 698.167C514.518 696.119 509.406 686.904 511.451 678.714Z" fill="url(#paint15_radial)"/>
<defs>
<filter id="filter0_d" x="0" y="0" width="752" height="752" filterUnits="userSpaceOnUse" color-interpolation-filters="sRGB">
<feFlood flood-opacity="0" result="BackgroundImageFix"/>
<feColorMatrix in="SourceAlpha" type="matrix" values="0 0 0 0 0 0 0 0 0 0 0 0 0 0 0 0 0 0 127 0"/>
<feOffset/>
<feGaussianBlur stdDeviation="7.5"/>
<feColorMatrix type="matrix" values="0 0 0 0 0 0 0 0 0 0 0 0 0 0 0 0 0 0 0.4 0"/>
<feBlend mode="normal" in2="BackgroundImageFix" result="effect1_dropShadow"/>
<feBlend mode="normal" in="SourceGraphic" in2="effect1_dropShadow" result="shape"/>
</filter>
<radialGradient id="paint0_radial" cx="0" cy="0" r="1" gradientUnits="userSpaceOnUse" gradientTransform="translate(381.54 38.08) rotate(-164.983) scale(15.7539 15.7722)">
<stop offset="0.0360825" stop-color="white"/>
<stop offset="0.432292" stop-color="#FFEB73"/>
<stop offset="0.71875" stop-color="#FFAA00"/>
<stop offset="1" stop-color="#FFEEBC"/>
</radialGradient>
<radialGradient id="paint1_radial" cx="0" cy="0" r="1" gradientUnits="userSpaceOnUse" gradientTransform="translate(382.54 715.08) rotate(-164.983) scale(15.7539 15.7722)">
<stop offset="0.0360825" stop-color="white"/>
<stop offset="0.432292" stop-color="#FFEB73"/>
<stop offset="0.71875" stop-color="#FFAA00"/>
<stop offset="1" stop-color="#FFEEBC"/>
</radialGradient>
<radialGradient id="paint2_radial" cx="0" cy="0" r="1" gradientUnits="userSpaceOnUse" gradientTransform="translate(714.54 376.08) rotate(-164.983) scale(15.7539 15.7722)">
<stop offset="0.0360825" stop-color="white"/>
<stop offset="0.432292" stop-color="#FFEB73"/>
<stop offset="0.71875" stop-color="#FFAA00"/>
<stop offset="1" stop-color="#FFEEBC"/>
</radialGradient>
<radialGradient id="paint3_radial" cx="0" cy="0" r="1" gradientUnits="userSpaceOnUse" gradientTransform="translate(37.5402 376.08) rotate(-164.983) scale(15.7539 15.7722)">
<stop offset="0.0360825" stop-color="white"/>
<stop offset="0.432292" stop-color="#FFEB73"/>
<stop offset="0.71875" stop-color="#FFAA00"/>
<stop offset="1" stop-color="#FFEEBC"/>
</radialGradient>
<radialGradient id="paint4_radial" cx="0" cy="0" r="1" gradientUnits="userSpaceOnUse" gradientTransform="translate(134.54 139.08) rotate(-164.983) scale(15.7539 15.7722)">
<stop offset="0.0360825" stop-color="white"/>
<stop offset="0.432292" stop-color="#FFEB73"/>
<stop offset="0.71875" stop-color="#FFAA00"/>
<stop offset="1" stop-color="#FFEEBC"/>
</radialGradient>
<radialGradient id="paint5_radial" cx="0" cy="0" r="1" gradientUnits="userSpaceOnUse" gradientTransform="translate(234.54 70.08) rotate(-164.983) scale(15.7539 15.7722)">
<stop offset="0.0360825" stop-color="white"/>
<stop offset="0.432292" stop-color="#FFEB73"/>
<stop offset="0.71875" stop-color="#FFAA00"/>
<stop offset="1" stop-color="#FFEEBC"/>
</radialGradient>
<radialGradient id="paint6_radial" cx="0" cy="0" r="1" gradientUnits="userSpaceOnUse" gradientTransform="translate(526.54 70.08) rotate(-164.983) scale(15.7539 15.7722)">
<stop offset="0.0360825" stop-color="white"/>
<stop offset="0.432292" stop-color="#FFEB73"/>
<stop offset="0.71875" stop-color="#FFAA00"/>
<stop offset="1" stop-color="#FFEEBC"/>
</radialGradient>
<radialGradient id="paint7_radial" cx="0" cy="0" r="1" gradientUnits="userSpaceOnUse" gradientTransform="translate(688.54 238.08) rotate(-164.983) scale(15.7539 15.7722)">
<stop offset="0.0360825" stop-color="white"/>
<stop offset="0.432292" stop-color="#FFEB73"/>
<stop offset="0.71875" stop-color="#FFAA00"/>
<stop offset="1" stop-color="#FFEEBC"/>
</radialGradient>
<radialGradient id="paint8_radial" cx="0" cy="0" r="1" gradientUnits="userSpaceOnUse" gradientTransform="translate(64.5402 238.08) rotate(-164.983) scale(15.7539 15.7722)">
<stop offset="0.0360825" stop-color="white"/>
<stop offset="0.432292" stop-color="#FFEB73"/>
<stop offset="0.71875" stop-color="#FFAA00"/>
<stop offset="1" stop-color="#FFEEBC"/>
</radialGradient>
<radialGradient id="paint9_radial" cx="0" cy="0" r="1" gradientUnits="userSpaceOnUse" gradientTransform="translate(64.5402 514.08) rotate(-164.983) scale(15.7539 15.7722)">
<stop offset="0.0360825" stop-color="white"/>
<stop offset="0.432292" stop-color="#FFEB73"/>
<stop offset="0.71875" stop-color="#FFAA00"/>
<stop offset="1" stop-color="#FFEEBC"/>
</radialGradient>
<radialGradient id="paint10_radial" cx="0" cy="0" r="1" gradientUnits="userSpaceOnUse" gradientTransform="translate(688.54 514.08) rotate(-164.983) scale(15.7539 15.7722)">
<stop offset="0.0360825" stop-color="white"/>
<stop offset="0.432292" stop-color="#FFEB73"/>
<stop offset="0.71875" stop-color="#FFAA00"/>
<stop offset="1" stop-color="#FFEEBC"/>
</radialGradient>
<radialGradient id="paint11_radial" cx="0" cy="0" r="1" gradientUnits="userSpaceOnUse" gradientTransform="translate(619.54 614.08) rotate(-164.983) scale(15.7539 15.7722)">
<stop offset="0.0360825" stop-color="white"/>
<stop offset="0.432292" stop-color="#FFEB73"/>
<stop offset="0.71875" stop-color="#FFAA00"/>
<stop offset="1" stop-color="#FFEEBC"/>
</radialGradient>
<radialGradient id="paint12_radial" cx="0" cy="0" r="1" gradientUnits="userSpaceOnUse" gradientTransform="translate(619.54 139.08) rotate(-164.983) scale(15.7539 15.7722)">
<stop offset="0.0360825" stop-color="white"/>
<stop offset="0.432292" stop-color="#FFEB73"/>
<stop offset="0.71875" stop-color="#FFAA00"/>
<stop offset="1" stop-color="#FFEEBC"/>
</radialGradient>
<radialGradient id="paint13_radial" cx="0" cy="0" r="1" gradientUnits="userSpaceOnUse" gradientTransform="translate(134.54 614.08) rotate(-164.983) scale(15.7539 15.7722)">
<stop offset="0.0360825" stop-color="white"/>
<stop offset="0.432292" stop-color="#FFEB73"/>
<stop offset="0.71875" stop-color="#FFAA00"/>
<stop offset="1" stop-color="#FFEEBC"/>
</radialGradient>
<radialGradient id="paint14_radial" cx="0" cy="0" r="1" gradientUnits="userSpaceOnUse" gradientTransform="translate(229.54 683.08) rotate(-164.983) scale(15.7539 15.7722)">
<stop offset="0.0360825" stop-color="white"/>
<stop offset="0.432292" stop-color="#FFEB73"/>
<stop offset="0.71875" stop-color="#FFAA00"/>
<stop offset="1" stop-color="#FFEEBC"/>
</radialGradient>
<radialGradient id="paint15_radial" cx="0" cy="0" r="1" gradientUnits="userSpaceOnUse" gradientTransform="translate(526.54 683.08) rotate(-164.983) scale(15.7539 15.7722)">
<stop offset="0.0360825" stop-color="white"/>
<stop offset="0.432292" stop-color="#FFEB73"/>
<stop offset="0.71875" stop-color="#FFAA00"/>
<stop offset="1" stop-color="#FFEEBC"/>
</radialGradient>
</defs>
</svg>
